<?xml version="1.0" encoding="UTF-8"?>
<svg id="Favicon_Svetli_1" data-name="Favicon Svetli 1" xmlns="http://www.w3.org/2000/svg" viewBox="0 0 1024 1024">
  <defs>
    <style>
      .cls-1 {
        fill: #52b788;
        stroke: #52b788;
        stroke-miterlimit: 10;
        stroke-width: 10px;
      }
    </style>
  </defs>
  <g>
    <path class="cls-1" d="M379.18,630.17c-22.82,0-41.38-18.56-41.38-41.38s18.56-41.38,41.38-41.38,41.38,18.56,41.38,41.38-18.56,41.38-41.38,41.38ZM379.18,561.98c-14.78,0-26.81,12.03-26.81,26.81s12.03,26.81,26.81,26.81,26.81-12.03,26.81-26.81-12.03-26.81-26.81-26.81Z"/>
    <path class="cls-1" d="M466.28,284.03c-1.32,0-2.62.36-3.75,1.04-1.05.63-26.02,15.76-52.74,45-15.1,16.53-32.47,39.65-45.19,68.67v-1.26h-55.43l-.85.21c-.9.22-22.1,5.59-24.13,26.31l-.03,29.13c-.56,7.18,1.71,20,13.33,23.51l-1.24,165.22v.92s.22.9.22.9c.22.9,5.73,22.12,25.14,30.91,5.75,2.6,11.45,3.53,16.67,3.53,8.66,0,15.96-2.56,19.83-4.25.75-.33,1.55-.5,2.37-.5h6.45s0,36.94,0,36.94v.36c.43,8.48,6.22,25.48,25.13,29.11l.68.13h75.56c.48.04.99.06,1.52.06,8.28,0,22.53-5.18,28.17-25.66l.26-.95v-40.17l116.01-.14,1.29-389.01h-149.28ZM302.69,462.92c-4.59-.63-4.02-8.51-3.99-8.81l.03-29.01c1.06-8.78,9.78-12.22,12.34-13.05h48.2c-4.74,13.03-8.46,27.1-10.63,42.17-8.92-.34-24.25.7-38.65,9.23l-7.3-.53ZM483.68,709.18c0,1.56-.26,3.12-.82,4.58-4.54,11.87-12.56,11.69-13.38,11.63l-.26-.05h-75.04c-11.21-2.54-12.54-13.53-12.68-15.27v-36.73l102.19-.13v35.97ZM599.74,658.49l-242.28.3h-.03c-1.23.01-2.44.33-3.52.93h0c-.13.07-13.57,7.35-26.3,1.58-8.96-4.06-13.67-12.63-15.72-17.53-.73-1.73-1.07-3.6-1.06-5.48l1.15-154.02c.02-3.06,1.61-5.89,4.19-7.53,17.14-10.84,37.3-7.5,37.5-7.47l6.12,1.11c.88.16,1.75.39,2.6.7,9.25,3.4,27.45,8.25,62.25,12.55,4.77.59,9.85,1.17,15.26,1.73,16.62,1.73,36.36,3.31,59.79,4.6,5.08.28,10.32.54,15.75.79,24.47,1.13,52.56,1.94,84.83,2.3l-.55,165.43ZM441.34,470.9c4.75-8.68,16.21-14.83,29.58-14.83,15.65,0,28.67,8.41,31.38,19.45-24.15-1.3-44.26-2.9-60.96-4.63ZM517.21,476.26c-2.17-19.46-22.1-34.76-46.29-34.76-21.17,0-39.08,11.72-44.67,27.69-33.19-4.09-49.88-8.56-57.73-11.33-3.17-1.12-5.05-4.38-4.46-7.69,13.68-77.47,71.18-127.36,95.28-145.23,5.54-4.11,12.23-6.34,19.13-6.34h122.47s-.07,21.66-.07,21.66h-14.57c-5.49,0-9.94,4.45-9.94,9.94v.08c0,5.49,4.45,9.94,9.94,9.94h14.5l-.46,138.28c-31.66-.36-59.18-1.15-83.12-2.23Z"/>
    <path class="cls-1" d="M598.06,617.88h-83.82c-2.21,0-4-1.79-4-4v-6.56c0-2.21,1.79-4,4-4h83.82v14.57Z"/>
    <path class="cls-1" d="M598.06,577.89h-83.82c-2.21,0-4-1.79-4-4v-6.56c0-2.21,1.79-4,4-4h83.82v14.57Z"/>
  </g>
  <path class="cls-1" d="M599.69,27v74.43c-51.05,1.51-100.59,12.27-147.43,32.08-48.92,20.69-92.85,50.31-130.57,88.03-37.72,37.72-67.34,81.65-88.03,130.57-21.42,50.65-32.29,104.45-32.29,159.9s10.86,109.25,32.29,159.9c20.69,48.92,50.31,92.85,88.03,130.57,37.72,37.72,81.65,67.34,130.57,88.03,46.85,19.81,96.39,30.57,147.43,32.08v74.43h24.93V27h-24.93ZM599.69,897.62c-207.01-6.61-373.38-177.04-373.38-385.62S392.68,132.98,599.69,126.38v771.25Z"/>
</svg>