<?xml version="1.0" encoding="UTF-8"?>
<svg version="1.1" xmlns="http://www.w3.org/2000/svg" width="512" height="512">
<path d="M0 0 C1.46994235 -0.00576944 2.93987747 -0.01371607 4.40979767 -0.02363622 C8.42705688 -0.0444203 12.4437187 -0.03423328 16.46097946 -0.01870513 C20.80190738 -0.00736072 25.14273482 -0.02486961 29.48364258 -0.03860474 C37.97876579 -0.06080879 46.4736678 -0.0560486 54.96879959 -0.04154153 C61.87448183 -0.03023813 68.78010218 -0.02872316 75.68579102 -0.03416061 C77.16147073 -0.03530986 77.16147073 -0.03530986 78.66696215 -0.03648233 C80.66566151 -0.03808099 82.66436086 -0.03970206 84.66306019 -0.04134528 C103.39390452 -0.05559449 122.12462639 -0.03922306 140.85545063 -0.01234345 C156.91866903 0.00999457 172.98170674 0.0061142 189.04492188 -0.01693726 C207.70987674 -0.04370989 226.37472435 -0.05422127 245.03969574 -0.03887594 C247.03093972 -0.03728323 249.02218372 -0.03571138 251.01342773 -0.03416061 C252.48292712 -0.03300355 252.48292712 -0.03300355 253.98211336 -0.03182311 C260.87750612 -0.0275105 267.77283069 -0.03478319 274.66821289 -0.04655838 C283.07428635 -0.06059816 291.48012644 -0.05675236 299.88617325 -0.03015466 C304.17307627 -0.01703634 308.45959055 -0.01183001 312.74649048 -0.02840042 C316.67471731 -0.04335451 320.60219689 -0.03502291 324.53035641 -0.00851266 C325.94744603 -0.00295066 327.36459944 -0.00571675 328.78164768 -0.0178916 C337.31976159 -0.08559253 344.25139718 0.55326652 351.34960938 5.63491821 C357.0620548 11.38495534 359.85151012 18.06900836 360.72460938 26.07241821 C359.86219667 34.26533891 357.77921158 41.17739409 351.34960938 46.63491821 C344.98274906 50.95809497 339.5463862 52.77568233 331.83007812 52.73257446 C330.80849609 52.72935181 329.78691406 52.72612915 328.734375 52.72280884 C327.67927734 52.71442993 326.62417969 52.70605103 325.53710938 52.69741821 C324.46267578 52.69290649 323.38824219 52.68839478 322.28125 52.68374634 C319.63731254 52.6719955 316.99348986 52.65556608 314.34960938 52.63491821 C314.35960213 54.04074661 314.35960213 54.04074661 314.36979675 55.47497559 C314.43110058 64.38731368 314.47581529 73.29960799 314.50504589 82.21211052 C314.5205797 86.79210193 314.54158782 91.37192067 314.57592773 95.95181274 C314.60896656 100.38686906 314.62655421 104.82176125 314.6342411 109.2569313 C314.639706 110.93347883 314.65037218 112.61001926 314.66679955 114.28649521 C314.81118808 129.6592334 313.30920502 144.66305335 308.16210938 159.25991821 C307.86095215 160.13325806 307.55979492 161.0065979 307.24951172 161.90640259 C294.04825438 199.03536262 266.77470799 223.07574889 233.96728516 243.1366272 C228.41885903 246.53729843 223.11350501 250.22606998 217.82617188 254.01773071 C215.34960938 255.63491821 215.34960938 255.63491821 213.34960938 255.63491821 C213.34960938 256.29491821 213.34960938 256.95491821 213.34960938 257.63491821 C214.0649585 257.89450317 214.78030762 258.15408813 215.51733398 258.42153931 C218.50248934 259.70041372 220.97482398 261.23404126 223.66601562 263.04898071 C225.18485352 264.06798462 225.18485352 264.06798462 226.734375 265.10757446 C228.30735352 266.17298462 228.30735352 266.17298462 229.91210938 267.25991821 C230.93369141 267.94698853 231.95527344 268.63405884 233.0078125 269.34194946 C235.07761653 270.73400694 237.14613299 272.12798071 239.21337891 273.52383423 C242.38447883 275.65838981 245.56710104 277.77485614 248.75195312 279.88882446 C268.74709098 293.21347063 285.5981835 308.47269955 297.34960938 329.63491821 C297.68589355 330.236427 298.02217773 330.83793579 298.36865234 331.45767212 C302.55718245 339.04975182 305.97935868 346.76041718 308.66210938 355.00991821 C308.89236816 355.70295044 309.12262695 356.39598267 309.35986328 357.11001587 C313.81391099 371.65511223 314.79050562 386.35865808 314.64257812 401.45523071 C314.63696166 403.17827987 314.63270131 404.90133392 314.62971497 406.62438965 C314.61842719 411.09264068 314.58910496 415.56058477 314.55560303 420.02871704 C314.52454912 424.61485648 314.5111353 429.20104701 314.49609375 433.78726196 C314.46421448 442.73661332 314.41322092 451.68573995 314.34960938 460.63491821 C314.99921631 460.61920776 315.64882324 460.60349731 316.31811523 460.58731079 C319.30768869 460.52432484 322.29712186 460.485728 325.28710938 460.44741821 C326.81948242 460.40971313 326.81948242 460.40971313 328.3828125 460.37124634 C337.43266683 460.28450652 345.20223615 461.75818912 352.34960938 467.63491821 C357.94753922 473.66242541 359.91829846 478.89049813 360.66210938 487.07241821 C359.95537614 495.12917704 357.07668316 501.87015646 351.34960938 507.63491821 C343.62925502 513.16196513 335.89109516 513.34881025 326.69921875 513.26983643 C325.2292764 513.27560587 323.75934128 513.28355249 322.28942108 513.29347265 C318.27216187 513.31425673 314.25550005 513.30406971 310.23823929 513.28854156 C305.89731137 513.27719715 301.55648393 513.29470603 297.21557617 513.30844116 C288.72045296 513.33064521 280.22555095 513.32588503 271.73041916 513.31137796 C264.82473692 513.30007455 257.91911657 513.29855958 251.01342773 513.30399704 C249.53774802 513.30514629 249.53774802 513.30514629 248.0322566 513.30631875 C246.03355724 513.30791742 244.03485789 513.30953849 242.03615856 513.31118171 C223.30531423 513.32543091 204.57459236 513.30905948 185.84376812 513.28217988 C169.78054972 513.25984186 153.71751201 513.26372222 137.65429688 513.28677368 C118.98934201 513.31354631 100.3244944 513.32405769 81.65952301 513.30871236 C79.66827903 513.30711966 77.67703503 513.30554781 75.68579102 513.30399704 C74.70612476 513.30322566 73.7264585 513.30245428 72.71710539 513.30165953 C65.82171263 513.29734693 58.92638806 513.30461961 52.03100586 513.31639481 C43.6249324 513.33043459 35.21909231 513.32658878 26.8130455 513.29999109 C22.52614248 513.28687277 18.2396282 513.28166644 13.95272827 513.29823685 C10.02450144 513.31319093 6.09702186 513.30485934 2.16886234 513.27834909 C0.75177272 513.27278709 -0.66538069 513.27555318 -2.08242893 513.28772803 C-10.62054284 513.35542896 -17.55217843 512.71656991 -24.65039062 507.63491821 C-30.36283605 501.88488109 -33.15229137 495.20082806 -34.02539062 487.19741821 C-33.08750492 478.28750398 -30.55909653 471.58217399 -23.65039062 465.63491821 C-17.44999837 461.5758379 -11.62130061 460.50235466 -4.25585938 460.53726196 C-2.4527832 460.54209595 -2.4527832 460.54209595 -0.61328125 460.54702759 C0.63259766 460.55540649 1.87847656 460.5637854 3.16210938 460.57241821 C4.42732422 460.57692993 5.69253906 460.58144165 6.99609375 460.58609009 C10.11398048 460.5978557 13.23177071 460.61429549 16.34960938 460.63491821 C16.34294754 459.7670015 16.33628571 458.89908478 16.329422 458.00486755 C16.2686922 449.7262503 16.22332625 441.44771047 16.19417286 433.16891956 C16.17867981 428.91521831 16.15775108 424.66170481 16.12329102 420.40811157 C15.78764526 377.81096016 20.93683888 341.28730608 49.34960938 307.63491821 C50.04828125 306.80089478 50.74695313 305.96687134 51.46679688 305.10757446 C61.95515705 292.99557134 75.07047 284.53079824 88.27636719 275.6756897 C91.24351798 273.68473053 94.20310667 271.68288362 97.16210938 269.67984009 C99.05490092 268.4051015 100.94811502 267.13099007 102.84179688 265.85757446 C103.72205536 265.26179092 104.60231384 264.66600739 105.50924683 264.0521698 C106.3342569 263.50076828 107.15926697 262.94936676 108.00927734 262.3812561 C108.72888641 261.89766129 109.44849548 261.41406647 110.18991089 260.91581726 C112.50395903 259.54337473 114.83096824 258.57102392 117.34960938 257.63491821 C117.34960938 256.97491821 117.34960938 256.31491821 117.34960938 255.63491821 C116.61314682 255.36057953 115.87668427 255.08624084 115.11790466 254.80358887 C112.52470956 253.70883896 110.39155008 252.49538873 108.05688477 250.93618774 C107.24155777 250.3944693 106.42623077 249.85275085 105.5861969 249.2946167 C104.27992592 248.41505814 104.27992592 248.41505814 102.94726562 247.51773071 C102.03311386 246.90533539 101.1189621 246.29294006 100.17710876 245.6619873 C98.23970131 244.36149182 96.3039955 243.05845827 94.36987305 241.75308228 C91.46014389 239.79228749 88.54106721 237.84603769 85.62109375 235.90054321 C56.41477277 216.31074156 34.05007898 192.99082978 22.41210938 159.13491821 C22.14188965 158.36663696 21.87166992 157.59835571 21.59326172 156.80679321 C16.79536765 141.92997918 15.90208824 126.44274784 16.05664062 110.93569946 C16.0622589 109.23649985 16.06651838 107.53729527 16.06950378 105.83808899 C16.08077748 101.43725369 16.11008628 97.0367313 16.14361572 92.63601685 C16.17470128 88.11681345 16.18809 83.59755784 16.203125 79.07827759 C16.23497918 70.26368332 16.28595397 61.44934004 16.34960938 52.63491821 C15.57883057 52.65062866 14.80805176 52.66633911 14.01391602 52.68252563 C10.48005681 52.7453604 6.94631567 52.78406249 3.41210938 52.82241821 C2.19974609 52.84755493 0.98738281 52.87269165 -0.26171875 52.89859009 C-11.63528932 52.99105814 -19.99793758 51.15591886 -28.33789062 43.00991821 C-32.75955147 37.37586649 -34.41545109 29.64797249 -33.65039062 22.63491821 C-32.04649463 15.28372824 -28.88154103 8.66402357 -22.64225006 4.19727862 C-15.1860612 0.10622461 -8.35022523 -0.07174261 0 0 Z M160.68041992 290.73916626 C159.94741165 291.20401932 159.21440338 291.66887238 158.45918274 292.14781189 C157.26605721 292.9206678 157.26605721 292.9206678 156.04882812 293.70913696 C155.21204025 294.24487839 154.37525238 294.78061981 153.5131073 295.33259583 C144.25856135 301.2853123 135.10621237 307.39259597 125.98413086 313.54580688 C123.13016456 315.46894414 120.27027965 317.38306288 117.41015625 319.29702759 C115.56278674 320.54062721 113.71576835 321.78474863 111.86914062 323.02944946 C111.02946243 323.59001541 110.18978424 324.15058136 109.32466125 324.72813416 C103.98010765 328.34936404 99.11394581 332.28190656 94.34960938 336.63491821 C93.53492188 337.35937134 92.72023438 338.08382446 91.88085938 338.83023071 C78.02775842 351.99067662 71.00821214 370.02469884 68.34960938 388.63491821 C68.34960938 412.39491821 68.34960938 436.15491821 68.34960938 460.63491821 C132.36960937 460.63491821 196.38960937 460.63491821 262.34960938 460.63491821 C265.87096434 414.23410125 265.87096434 414.23410125 256.09960938 364.38491821 C255.79659912 363.72290405 255.49358887 363.06088989 255.18139648 362.3788147 C246.6804263 344.26786116 233.86831504 332.642359 217.31054688 321.89663696 C215.92375229 320.98722099 215.92375229 320.98722099 214.50894165 320.05943298 C211.58391025 318.14233889 208.65455196 316.23199605 205.72460938 314.32241821 C201.87658528 311.80803673 198.03079845 309.29025571 194.18554688 306.77163696 C193.25828796 306.16600922 192.33102905 305.56038147 191.37567139 304.93640137 C184.88254879 300.68266126 178.46880921 296.32626942 172.16317749 291.79841614 C167.61388509 288.59238607 165.4363459 287.69944323 160.68041992 290.73916626 Z " fill="#2C694E" transform="translate(92.650390625,-0.634918212890625)"/>
</svg>
