<?xml version="1.0" encoding="UTF-8"?>
<svg version="1.1" xmlns="http://www.w3.org/2000/svg" width="512" height="512">
<path d="M0 0 C1.01707031 -0.02578125 2.03414062 -0.0515625 3.08203125 -0.078125 C9.87128192 0.63922979 13.86951573 4.55737298 18.5 9.125 C61.10633124 49.77722782 118.05532657 70.11577323 176.28125 72.703125 C177.06402817 72.73969208 177.84680634 72.77625916 178.65330505 72.81393433 C182.53829235 72.99284181 186.42120718 73.14518698 190.30883789 73.25244141 C204.46975346 73.76290355 204.46975346 73.76290355 210.1875 79.25 C215.00371706 85.30114451 215.34922651 90.22940766 215.50390625 97.75 C215.5248233 98.62441238 215.54574036 99.49882477 215.56729126 100.3997345 C215.63469014 103.3497231 215.69334122 106.29978627 215.75 109.25 C215.77051422 110.27854095 215.79102844 111.30708191 215.81216431 112.36679077 C217.56703573 202.96558501 217.56703573 202.96558501 214.1875 240.25 C214.08566406 241.41869629 213.98382813 242.58739258 213.87890625 243.79150391 C208.08797861 308.0189683 189.97164891 371.65207923 147.1875 421.25 C146.55328125 421.99507813 145.9190625 422.74015625 145.265625 423.5078125 C133.99879055 436.39043328 121.86176991 448.79923922 108.01855469 458.90625 C106.04875821 460.35181798 104.10702594 461.83109402 102.1640625 463.3125 C76.97104289 482.28278335 28.66208359 514.85158754 -4.8125 512.25 C-7.94906386 511.58617341 -10.87818494 510.56758476 -13.875 509.4375 C-14.72296143 509.1276416 -15.57092285 508.8177832 -16.44458008 508.49853516 C-48.12012138 496.66346609 -79.20337504 481.28425628 -105.8125 460.25 C-106.66972656 459.58484375 -107.52695313 458.9196875 -108.41015625 458.234375 C-114.45022394 453.49194164 -120.14520037 448.42785103 -125.8125 443.25 C-126.74578125 442.42113281 -127.6790625 441.59226562 -128.640625 440.73828125 C-134.12123774 435.8491554 -139.11211351 430.88253065 -143.8125 425.25 C-144.60914063 424.3528125 -145.40578125 423.455625 -146.2265625 422.53125 C-193.2520107 369.23113255 -210.41309729 297.55273229 -214.8125 228.25 C-214.87815155 227.23897217 -214.87815155 227.23897217 -214.94512939 226.20751953 C-215.97791912 209.72993166 -215.9729683 193.24763094 -215.94167709 176.745327 C-215.93745675 174.47675364 -215.93451913 172.20818132 -215.93179321 169.93960571 C-215.90604376 150.98529488 -215.84752811 132.02895598 -215.54803467 113.07678223 C-215.51629895 111.00271008 -215.48907455 108.92856344 -215.46661377 106.85437012 C-215.43370825 104.01051824 -215.38193196 101.16766126 -215.32421875 98.32421875 C-215.31781876 97.51278915 -215.31141876 96.70135956 -215.30482483 95.86534119 C-215.156339 90.15874625 -214.41772344 84.13809881 -210.43193054 79.7195282 C-205.20680953 75.20723793 -201.44223822 74.01035205 -194.6015625 73.7578125 C-193.12929112 73.6948489 -191.65704261 73.63134907 -190.18481445 73.56738281 C-189.41126617 73.53664673 -188.6377179 73.50591064 -187.84072876 73.47424316 C-125.64384806 70.90577555 -66.63326705 54.13346584 -20.47265625 10.703125 C-9.01378164 0.13605708 -9.01378164 0.13605708 0 0 Z M73.1875 177.25 C72.74470703 177.69802979 72.30191406 178.14605957 71.84570312 178.60766602 C69.79573317 180.67870096 67.74164567 182.74560697 65.6875 184.8125 C64.99140625 185.51697266 64.2953125 186.22144531 63.578125 186.94726562 C59.54316328 191.00090773 55.40928169 194.84996552 51.07617188 198.58178711 C48.14369557 201.17196428 45.42062075 203.95275911 42.6875 206.75 C38.68094872 210.80704197 34.6286067 214.689992 30.27734375 218.37890625 C26.91253925 221.39150691 23.78204812 224.63572042 20.60913086 227.84790039 C17.30150237 231.18059062 13.89093393 234.30208116 10.3125 237.34375 C7.49356068 239.87250439 4.84811163 242.55646001 2.1875 245.25 C-1.63483004 249.1196361 -5.5049539 252.81088563 -9.671875 256.3125 C-11.4767752 257.9461323 -13.14957118 259.61532648 -14.828125 261.375 C-15.62863281 262.20741211 -15.62863281 262.20741211 -16.4453125 263.05664062 C-17.5084662 264.16987041 -18.56097212 265.29338522 -19.6015625 266.42773438 C-23.23184327 270.21647978 -23.23184327 270.21647978 -25.91015625 270.37109375 C-28.46558021 268.86512522 -30.06915817 267.06690731 -32 264.8125 C-32.78761719 263.90628906 -33.57523438 263.00007813 -34.38671875 262.06640625 C-35.18722656 261.13699219 -35.98773438 260.20757812 -36.8125 259.25 C-38.30808597 257.57937126 -39.80799275 255.91259908 -41.3125 254.25 C-50.3125 244.25 -50.3125 244.25 -52.55078125 241.76171875 C-54.08812686 240.05444202 -55.62725555 238.34876956 -57.16796875 236.64453125 C-61.45166046 231.90161631 -65.67946092 227.12486661 -69.8125 222.25 C-75.42401398 226.28339157 -80.55701739 230.61518525 -85.5625 235.375 C-86.20832031 235.98214844 -86.85414063 236.58929688 -87.51953125 237.21484375 C-90.66553151 240.17996515 -93.77828791 243.169815 -96.8125 246.25 C-91.96944272 251.65509109 -87.10128432 257.03426223 -82.1875 262.375 C-78.62741722 266.24632355 -75.12544025 270.15948039 -71.6796875 274.1328125 C-68.83455329 277.35888518 -65.91617121 280.5173544 -63.00439453 283.68310547 C-60.04814718 286.89844194 -57.10833423 290.12735914 -54.1875 293.375 C-53.46691406 294.17550781 -52.74632812 294.97601563 -52.00390625 295.80078125 C-50.48356366 297.49998767 -48.97106869 299.20623558 -47.46484375 300.91796875 C-40.33879816 309.78823628 -40.33879816 309.78823628 -30.52734375 314.55859375 C-22.85442841 314.91472062 -18.57898909 313.2611003 -12.8125 308.25 C-10.74014883 306.2997836 -8.74235416 304.30452174 -6.7734375 302.25 C-4.88350231 300.3224167 -2.92725048 298.56461899 -0.875 296.8125 C2.11551716 294.24334729 4.91866684 291.55682744 7.6875 288.75 C11.04864482 285.3428121 14.52451203 282.17541826 18.15625 279.0625 C21.22724317 276.32222917 24.07536876 273.37053098 26.96484375 270.44140625 C29.6145144 267.82898932 32.39922803 265.41697379 35.22265625 262.99609375 C37.29570324 261.15384325 39.24185802 259.22598338 41.1875 257.25 C43.74740134 254.65017817 46.3552954 252.18731602 49.125 249.8125 C52.11551716 247.24334729 54.91866684 244.55682744 57.6875 241.75 C61.04864482 238.3428121 64.52451203 235.17541826 68.15625 232.0625 C70.42388572 230.0390712 72.5532695 227.91346653 74.6875 225.75 C77.4360599 222.96378859 80.21609791 220.29691608 83.1875 217.75 C87.76458349 213.82547259 91.96622516 209.55009532 96.1875 205.25 C96.8475 204.59 97.5075 203.93 98.1875 203.25 C97.61902344 202.693125 97.05054688 202.13625 96.46484375 201.5625 C92.08717092 197.23598528 87.89383604 192.84217488 83.88671875 188.171875 C81.13019309 185.05414942 78.16399178 182.15580992 75.1875 179.25 C74.1975 178.26 74.1975 178.26 73.1875 177.25 Z " fill="#2C694E" transform="translate(255.8125,-0.25)"/>
</svg>
