<svg xmlns="http://www.w3.org/2000/svg" xmlns:xlink="http://www.w3.org/1999/xlink" width="500" zoomAndPan="magnify" viewBox="0 0 375 374.999991" height="500" preserveAspectRatio="xMidYMid meet" version="1.0"><defs><clipPath id="b4be4f32be"><path d="M 162 175 L 337.5 175 L 337.5 294 L 162 294 Z M 162 175 " clip-rule="nonzero"/></clipPath><clipPath id="0f7dd67fbb"><path d="M 37.5 53 L 173 53 L 173 75 L 37.5 75 Z M 37.5 53 " clip-rule="nonzero"/></clipPath><clipPath id="9297856c9e"><path d="M 84.628906 158.550781 L 86.109375 158.550781 L 86.109375 159.773438 L 84.628906 159.773438 Z M 84.628906 158.550781 " clip-rule="nonzero"/></clipPath><clipPath id="708e5fb054"><path d="M 86.101562 159 C 85.425781 159.976562 84.824219 159.824219 84.675781 159.601562 C 84.601562 159.375 84.675781 158.773438 84.898438 158.625 C 85.050781 158.476562 85.875 158.699219 85.875 158.699219 " clip-rule="nonzero"/></clipPath></defs><path fill="#474147" d="M 275.390625 182.226562 C 273.632812 182.226562 271.875 180.46875 271.875 178.710938 L 271.875 160.546875 C 271.875 151.757812 265.429688 145.3125 257.226562 145.3125 L 234.375 145.3125 C 226.171875 145.3125 219.140625 151.757812 219.140625 160.546875 L 219.140625 178.710938 C 219.140625 180.46875 217.96875 182.226562 215.625 182.226562 C 213.867188 182.226562 212.109375 180.46875 212.109375 178.710938 L 212.109375 160.546875 C 212.109375 148.242188 222.070312 138.28125 234.375 138.28125 L 257.226562 138.28125 C 268.945312 138.28125 278.90625 148.242188 278.90625 160.546875 L 278.90625 178.710938 C 278.90625 180.46875 277.148438 182.226562 275.390625 182.226562 Z M 275.390625 182.226562 " fill-opacity="1" fill-rule="evenodd"/><g clip-path="url(#b4be4f32be)"><path fill="#2d6a4f" d="M 316.992188 293.554688 L 174.609375 293.554688 C 171.09375 293.554688 166.992188 292.382812 164.0625 290.625 C 162.304688 289.453125 161.71875 287.695312 162.890625 285.9375 C 163.476562 284.765625 165.234375 284.179688 166.40625 284.179688 L 167.578125 182.8125 C 166.992188 182.226562 165.820312 181.640625 165.820312 180.46875 C 165.234375 178.710938 165.820312 176.367188 168.164062 175.78125 C 170.507812 175.195312 172.265625 175.195312 174.609375 175.195312 L 316.992188 175.195312 C 328.125 175.195312 337.5 183.984375 337.5 195.117188 L 337.5 273.046875 C 337.5 284.179688 328.125 293.554688 316.992188 293.554688 Z M 316.992188 293.554688 " fill-opacity="1" fill-rule="evenodd"/></g><path fill="#48ad73" d="M 305.273438 293.554688 L 298.242188 293.554688 L 298.242188 175.195312 L 305.273438 175.195312 Z M 192.773438 293.554688 L 185.742188 293.554688 L 185.742188 175.195312 L 192.773438 175.195312 Z M 192.773438 293.554688 " fill-opacity="1" fill-rule="evenodd"/><path fill="#48ad73" d="M 72.65625 321.09375 C 69.140625 321.09375 66.210938 318.75 66.210938 315.234375 L 66.210938 292.382812 C 66.210938 289.453125 69.140625 286.523438 72.65625 286.523438 C 75.585938 286.523438 78.515625 289.453125 78.515625 292.382812 L 78.515625 315.234375 C 78.515625 318.75 75.585938 321.09375 72.65625 321.09375 Z M 72.65625 321.09375 " fill-opacity="1" fill-rule="evenodd"/><path fill="#48ad73" d="M 140.039062 321.09375 C 136.523438 321.09375 133.59375 318.75 133.59375 315.234375 L 133.59375 292.382812 C 133.59375 289.453125 136.523438 286.523438 140.039062 286.523438 C 142.96875 286.523438 145.898438 289.453125 145.898438 292.382812 L 145.898438 315.234375 C 145.898438 318.75 142.96875 321.09375 140.039062 321.09375 Z M 140.039062 321.09375 " fill-opacity="1" fill-rule="evenodd"/><path fill="#474147" d="M 144.140625 145.898438 C 141.210938 145.898438 138.28125 143.554688 138.28125 140.039062 L 138.28125 69.140625 C 138.28125 65.625 141.210938 63.28125 144.140625 63.28125 C 147.65625 63.28125 150.585938 65.625 150.585938 69.140625 L 150.585938 140.039062 C 150.585938 143.554688 147.65625 145.898438 144.140625 145.898438 Z M 66.210938 145.898438 C 63.28125 145.898438 60.351562 143.554688 60.351562 140.039062 L 60.351562 69.140625 C 60.351562 65.625 63.28125 63.28125 66.210938 63.28125 C 69.726562 63.28125 72.65625 65.625 72.65625 69.140625 L 72.65625 140.039062 C 72.65625 143.554688 69.726562 145.898438 66.210938 145.898438 Z M 66.210938 145.898438 " fill-opacity="1" fill-rule="evenodd"/><g clip-path="url(#0f7dd67fbb)"><path fill="#474147" d="M 165.820312 75 L 43.359375 75 C 40.429688 75 37.5 70.3125 37.5 64.453125 C 37.5 58.59375 40.429688 53.90625 43.359375 53.90625 L 165.820312 53.90625 C 169.335938 53.90625 172.265625 58.59375 172.265625 64.453125 C 172.265625 70.3125 169.335938 75 165.820312 75 Z M 165.820312 75 " fill-opacity="1" fill-rule="evenodd"/></g><path fill="#2d6a4f" d="M 155.273438 298.828125 L 57.421875 298.828125 C 47.460938 298.828125 39.84375 291.210938 39.84375 281.25 L 39.84375 151.171875 C 39.84375 141.796875 47.460938 134.179688 57.421875 134.179688 L 155.273438 134.179688 C 164.648438 134.179688 172.265625 141.796875 172.265625 151.171875 L 172.265625 281.25 C 172.265625 291.210938 164.648438 298.828125 155.273438 298.828125 Z M 155.273438 298.828125 " fill-opacity="1" fill-rule="evenodd"/><path fill="#48ad73" d="M 70.3125 256.640625 C 67.382812 256.640625 64.453125 254.296875 64.453125 250.78125 L 64.453125 182.226562 C 64.453125 178.710938 67.382812 175.78125 70.3125 175.78125 C 73.828125 175.78125 76.171875 178.710938 76.171875 182.226562 L 76.171875 250.78125 C 76.171875 254.296875 73.828125 256.640625 70.3125 256.640625 Z M 70.3125 256.640625 " fill-opacity="1" fill-rule="evenodd"/><path fill="#48ad73" d="M 104.882812 256.640625 C 101.953125 256.640625 99.023438 254.296875 99.023438 250.78125 L 99.023438 182.226562 C 99.023438 178.710938 101.953125 175.78125 104.882812 175.78125 C 108.398438 175.78125 110.742188 178.710938 110.742188 182.226562 L 110.742188 250.78125 C 110.742188 254.296875 108.398438 256.640625 104.882812 256.640625 Z M 104.882812 256.640625 " fill-opacity="1" fill-rule="evenodd"/><path fill="#48ad73" d="M 139.453125 256.640625 C 136.523438 256.640625 133.59375 254.296875 133.59375 250.78125 L 133.59375 182.226562 C 133.59375 178.710938 136.523438 175.78125 139.453125 175.78125 C 142.96875 175.78125 145.898438 178.710938 145.898438 182.226562 L 145.898438 250.78125 C 145.898438 254.296875 142.96875 256.640625 139.453125 256.640625 Z M 139.453125 256.640625 " fill-opacity="1" fill-rule="evenodd"/><path fill="#48ad73" d="M 245.507812 262.5 C 230.273438 262.5 217.382812 249.609375 217.382812 234.375 C 217.382812 218.554688 230.273438 206.25 245.507812 206.25 C 261.328125 206.25 273.632812 218.554688 273.632812 234.375 C 273.632812 249.609375 261.328125 262.5 245.507812 262.5 Z M 245.507812 262.5 " fill-opacity="1" fill-rule="evenodd"/><g clip-path="url(#9297856c9e)"><g clip-path="url(#708e5fb054)"><path fill="#2d6a4f" d="M 81.675781 155.625 L 89.09375 155.625 L 89.09375 162.898438 L 81.675781 162.898438 Z M 81.675781 155.625 " fill-opacity="1" fill-rule="nonzero"/></g></g></svg>