<?xml version="1.0" encoding="UTF-8"?>
<svg version="1.1" xmlns="http://www.w3.org/2000/svg" width="512" height="512">
<path d="M0 0 C1.01201477 0.00054382 2.02402954 0.00108765 3.06671143 0.00164795 C19.60117395 0.0423949 35.52064864 0.96613093 51.75 4.375 C52.76529785 4.58398926 53.7805957 4.79297852 54.82666016 5.00830078 C96.28490747 13.81727104 134.56952772 32.87621971 166.75 60.375 C167.49894531 61.01179688 168.24789063 61.64859375 169.01953125 62.3046875 C182.51520621 74.12202468 195.18558025 86.86051588 205.75 101.375 C206.60649066 102.52494831 207.46326433 103.67468589 208.3203125 104.82421875 C214.3609414 113.01589526 219.72005071 121.53145078 224.75 130.375 C225.11448242 131.00680176 225.47896484 131.63860352 225.85449219 132.28955078 C240.75250327 158.31833536 250.39791257 187.73638623 254.75 217.375 C254.92660156 218.57745361 255.10320312 219.77990723 255.28515625 221.01879883 C256.8891435 232.73525845 257.14963344 244.37402164 257.125 256.1875 C257.12418427 257.66626114 257.12418427 257.66626114 257.12335205 259.17489624 C257.08198691 275.54440674 256.1074816 291.30539842 252.75 307.375 C252.54101074 308.39174805 252.33202148 309.40849609 252.11669922 310.45605469 C244.22361646 347.59788681 228.11981568 382.46091381 204.75 412.375 C203.99074219 413.34695313 203.23148437 414.31890625 202.44921875 415.3203125 C190.11486402 430.69991644 176.31395499 445.25265196 160.75 457.375 C159.81414062 458.13941406 158.87828125 458.90382813 157.9140625 459.69140625 C124.24007391 486.65656678 82.32525201 504.12131189 39.75 510.375 C38.54537109 510.55232666 37.34074219 510.72965332 36.09960938 510.91235352 C24.44232646 512.511325 12.87813902 512.7334053 1.125 512.6875 C-0.32983292 512.68476578 -0.32983292 512.68476578 -1.8140564 512.68197632 C-16.16556055 512.63658309 -30.12942918 512.1312347 -44.25 509.375 C-45.14702637 509.21402832 -46.04405273 509.05305664 -46.96826172 508.88720703 C-90.57311969 500.99694853 -131.70990471 481.30735057 -165.25 452.375 C-165.99507813 451.74078125 -166.74015625 451.1065625 -167.5078125 450.453125 C-181.01279833 438.64198485 -193.68418743 425.89139772 -204.25 411.375 C-205.10649066 410.22505169 -205.96326433 409.07531411 -206.8203125 407.92578125 C-212.8609414 399.73410474 -218.22005071 391.21854922 -223.25 382.375 C-223.61448242 381.74319824 -223.97896484 381.11139648 -224.35449219 380.46044922 C-239.28473018 354.37535999 -248.76385054 325.03914886 -253.25 295.375 C-253.51490234 293.69132324 -253.51490234 293.69132324 -253.78515625 291.97363281 C-255.4420586 280.36052257 -255.64873513 268.84320055 -255.625 257.125 C-255.62445618 256.11298523 -255.62391235 255.10097046 -255.62335205 254.05828857 C-255.5826051 237.52382605 -254.65886907 221.60435136 -251.25 205.375 C-251.04101074 204.35970215 -250.83202148 203.3444043 -250.61669922 202.29833984 C-241.83880189 160.98633315 -222.83613066 122.3544774 -195.25 90.375 C-194.61578125 89.62992187 -193.9815625 88.88484375 -193.328125 88.1171875 C-181.51698485 74.61220167 -168.76639772 61.94081257 -154.25 51.375 C-153.10005169 50.51850934 -151.95031411 49.66173567 -150.80078125 48.8046875 C-142.60910474 42.7640586 -134.09354922 37.40494929 -125.25 32.375 C-124.61819824 32.01051758 -123.98639648 31.64603516 -123.33544922 31.27050781 C-97.25035999 16.34026982 -67.91414886 6.86114946 -38.25 2.375 C-37.12754883 2.19839844 -36.00509766 2.02179687 -34.84863281 1.83984375 C-23.23552257 0.1829414 -11.71820055 -0.02373513 0 0 Z M-0.60774231 143.97599792 C-5.31149365 149.472076 -10.34466886 154.58901329 -15.48036194 159.68052673 C-17.00593977 161.19312332 -18.52818086 162.70901202 -20.04968262 164.22570801 C-23.82616982 167.98895801 -27.60813511 171.74668668 -31.38995361 175.50457764 C-34.59759868 178.69235668 -37.80309295 181.88227042 -41.00587463 185.07493591 C-42.49203689 186.55470556 -43.98121996 188.03138565 -45.47058105 189.50793457 C-50.09154503 194.11226835 -54.59224116 198.75064541 -58.82130432 203.7194519 C-60.18493771 205.29960693 -61.59709822 206.79957714 -63.05859375 208.2890625 C-76.65219938 222.30683711 -84.74714207 239.15172006 -84.453125 259.046875 C-83.11481232 280.97461346 -71.25228131 297.00372821 -55.92468262 311.70056152 C-54.25822623 313.36677497 -52.74380841 315.09893713 -51.22070312 316.89648438 C-47.0349424 321.70835325 -42.54718752 326.19192537 -38.01963806 330.68052673 C-36.49406023 332.19312332 -34.97181914 333.70901202 -33.45031738 335.22570801 C-30.21971047 338.44499112 -26.98516777 341.66030112 -23.75 344.875 C-19.99548873 348.6057565 -16.24269387 352.33820751 -12.49412537 356.07493591 C-11.00796311 357.55470556 -9.51878004 359.03138565 -8.02941895 360.50793457 C-3.38740913 365.13323845 1.12367909 369.78980154 5.34686279 374.80299377 C7.18149117 376.85842158 9.16993994 378.3541468 11.5 379.8125 C12.23734375 380.28558594 12.9746875 380.75867188 13.734375 381.24609375 C18.6488673 383.9985904 23.72284336 384.22383109 29.0625 382.7265625 C35.8568815 380.04094549 40.03325486 376.04259189 43.125 369.4375 C44.87535104 360.8607799 43.31328441 355.72766048 38.75 348.375 C35.97157052 344.99073775 32.90643823 341.96814181 29.7578125 338.9296875 C28.89364716 338.07496857 28.02948181 337.22024963 27.13912964 336.33963013 C24.39608136 333.63092603 21.6364211 330.93995924 18.875 328.25 C16.12427938 325.5494944 13.37716714 322.84539465 10.6322937 320.13894653 C8.93016674 318.46290596 7.22411531 316.79083803 5.51345825 315.12350464 C1.24859719 310.94682731 -2.80744219 306.68689177 -6.69515991 302.15740967 C-8.82945273 299.71073738 -11.10948684 297.43780881 -13.4296875 295.16796875 C-14.35910156 294.25080078 -15.28851563 293.33363281 -16.24609375 292.38867188 C-18.15445107 290.51306074 -20.06693164 288.64182947 -21.98046875 286.77148438 C-41.4816571 267.49956311 -41.4816571 267.49956311 -41.625 256.5625 C-41.65335938 255.58667969 -41.68171875 254.61085938 -41.7109375 253.60546875 C-40.56716367 245.58935896 -35.74531947 240.23991589 -30.25 234.625 C-29.56301025 233.90836182 -28.87602051 233.19172363 -28.16821289 232.45336914 C-21.60411595 225.64402184 -14.90175409 218.96636393 -8.16601562 212.32714844 C-7.36744141 211.53727539 -6.56886719 210.74740234 -5.74609375 209.93359375 C-5.04669678 209.24579834 -4.3472998 208.55800293 -3.62670898 207.84936523 C-1.66458068 205.80661532 0.18574768 203.72911441 2.03222656 201.58398438 C5.73026596 197.32762889 9.68527939 193.39651543 13.73046875 189.47265625 C15.23952702 187.9908398 16.74797244 186.50839901 18.25585938 185.02539062 C20.60015625 182.72434736 22.94792757 180.42739053 25.30639648 178.14086914 C27.60529089 175.9089073 29.88764541 173.6610684 32.16796875 171.41015625 C32.86907272 170.73799576 33.5701767 170.06583527 34.29252625 169.37330627 C39.69556267 163.99988301 43.64214011 158.15495456 44.25 150.375 C43.84933977 143.8868891 41.16348693 138.30128742 36.375 133.9375 C31.66220131 130.32535494 26.95798764 128.809092 20.953125 129.00390625 C11.6401282 130.57258479 5.24676846 137.07258221 -0.60774231 143.97599792 Z " fill="#2C694E" transform="translate(255.25,-0.375)"/>
</svg>
