<?xml version="1.0" encoding="UTF-8"?>
<svg version="1.1" xmlns="http://www.w3.org/2000/svg" width="512" height="512">
<path d="M0 0 C0.98107727 0.00432037 1.96215454 0.00864075 2.97296143 0.01309204 C17.36435419 0.08726241 31.40628729 0.59401947 45.5625 3.375 C46.45807617 3.53597168 47.35365234 3.69694336 48.27636719 3.86279297 C91.88313051 11.75202492 133.02106217 31.44149133 166.5625 60.375 C167.30757813 61.00921875 168.05265625 61.6434375 168.8203125 62.296875 C182.32529833 74.10801515 194.99668743 86.85860228 205.5625 101.375 C206.41899066 102.52494831 207.27576433 103.67468589 208.1328125 104.82421875 C214.1734414 113.01589526 219.53255071 121.53145078 224.5625 130.375 C224.92698242 131.00680176 225.29146484 131.63860352 225.66699219 132.28955078 C240.59723018 158.37464001 250.07635054 187.71085114 254.5625 217.375 C254.73910156 218.49745117 254.91570312 219.61990234 255.09765625 220.77636719 C256.75458616 232.38967058 256.96016487 243.90666296 256.9375 255.625 C256.93728851 256.63568542 256.93707703 257.64637085 256.93685913 258.68768311 C256.9023632 275.24736258 255.95299345 291.12180462 252.5625 307.375 C252.38058105 308.26606445 252.19866211 309.15712891 252.01123047 310.07519531 C250.77767499 315.9199774 249.26615672 321.65071342 247.5625 327.375 C247.15306152 328.75751953 247.15306152 328.75751953 246.73535156 330.16796875 C236.46703569 364.16120009 219.78192218 395.45766985 196.5625 422.375 C195.92828125 423.12007813 195.2940625 423.86515625 194.640625 424.6328125 C182.82948485 438.13779833 170.07889772 450.80918743 155.5625 461.375 C154.41255169 462.23149066 153.26281411 463.08826433 152.11328125 463.9453125 C143.92160474 469.9859414 135.40604922 475.34505071 126.5625 480.375 C125.93069824 480.73948242 125.29889648 481.10396484 124.64794922 481.47949219 C98.5622492 496.41007977 69.22691333 505.88740561 39.5625 510.375 C38.43787354 510.55232666 37.31324707 510.72965332 36.15454102 510.91235352 C24.60059591 512.56375703 13.15784499 512.7317131 1.5 512.6875 C0.50426971 512.68567719 -0.49146057 512.68385437 -1.5173645 512.68197632 C-16.00923523 512.63727843 -30.19104374 512.26793711 -44.4375 509.375 C-45.33791016 509.19807617 -46.23832031 509.02115234 -47.16601562 508.83886719 C-53.64045153 507.5399419 -60.04624463 506.03361797 -66.4375 504.375 C-67.26813965 504.16004883 -68.0987793 503.94509766 -68.95458984 503.72363281 C-109.42300039 492.99088092 -146.35431601 471.34940378 -176.4375 442.375 C-177.09685547 441.74287598 -177.75621094 441.11075195 -178.43554688 440.45947266 C-187.92380305 431.31502521 -196.6637044 422.01765991 -204.4375 411.375 C-205.29556152 410.22394983 -206.15363451 409.07290823 -207.01171875 407.921875 C-213.04986829 399.73069386 -218.40845521 391.21695895 -223.4375 382.375 C-223.80198242 381.74319824 -224.16646484 381.11139648 -224.54199219 380.46044922 C-239.47223018 354.37535999 -248.95135054 325.03914886 -253.4375 295.375 C-253.70240234 293.69132324 -253.70240234 293.69132324 -253.97265625 291.97363281 C-255.6295586 280.36052257 -255.83623513 268.84320055 -255.8125 257.125 C-255.81195618 256.11298523 -255.81141235 255.10097046 -255.81085205 254.05828857 C-255.7701051 237.52382605 -254.84636907 221.60435136 -251.4375 205.375 C-251.22851074 204.35970215 -251.01952148 203.3444043 -250.80419922 202.29833984 C-242.89231191 165.06209416 -226.72256002 130.43440533 -203.4375 100.375 C-202.75171875 99.47652344 -202.0659375 98.57804687 -201.359375 97.65234375 C-196.08942525 90.89352608 -190.34595326 84.57562952 -184.4375 78.375 C-183.86580078 77.77461914 -183.29410156 77.17423828 -182.70507812 76.55566406 C-174.6968274 68.20691183 -166.47261118 60.56163949 -157.17480469 53.67236328 C-155.45374144 52.38712858 -153.761112 51.0707984 -152.0703125 49.74609375 C-124.06030851 28.10739612 -90.28241542 13.23630788 -55.8125 5.5625 C-54.58249268 5.28817139 -54.58249268 5.28817139 -53.32763672 5.00830078 C-35.61345922 1.3476191 -18.06192464 -0.15208053 0 0 Z M-38.8125 135.8125 C-42.83412444 140.99252713 -43.66625287 145.11252327 -43.8984375 151.58203125 C-42.42620101 160.50278623 -36.30776555 166.02856893 -30.10546875 172.0625 C-28.71470268 173.44099109 -27.32393883 174.81948443 -25.93330097 176.19810486 C-23.99538601 178.11418473 -22.04828343 180.02079836 -20.10125732 181.9276123 C-16.70245851 185.25994434 -13.31829231 188.60713273 -9.93415833 191.9543457 C-8.13697795 193.73006321 -6.33629477 195.50224505 -4.53153992 197.27026367 C-0.15715603 201.57599292 4.02808685 205.95179025 8.02427673 210.61044312 C10.15235291 213.05164365 12.4278817 215.3179581 14.7421875 217.58203125 C15.67160156 218.49919922 16.60101563 219.41636719 17.55859375 220.36132812 C19.46695107 222.23693926 21.37943164 224.10817053 23.29296875 225.97851562 C42.7941571 245.25043689 42.7941571 245.25043689 42.9375 256.1875 C42.96585937 257.16332031 42.99421875 258.13914062 43.0234375 259.14453125 C41.87966367 267.16064104 37.05781947 272.51008411 31.5625 278.125 C30.87551025 278.84163818 30.18852051 279.55827637 29.48071289 280.29663086 C22.91661595 287.10597816 16.21425409 293.78363607 9.47851562 300.42285156 C8.67994141 301.21272461 7.88136719 302.00259766 7.05859375 302.81640625 C6.35919678 303.50420166 5.6597998 304.19199707 4.93920898 304.90063477 C2.98184913 306.93842029 1.13590593 309.01025892 -0.70605469 311.15014648 C-4.48057077 315.49438535 -8.518711 319.51496823 -12.63671875 323.53125 C-14.19119602 325.06335496 -15.74521907 326.5959209 -17.29882812 328.12890625 C-19.71686236 330.50980806 -22.1377826 332.88747201 -24.56665039 335.25732422 C-26.93259165 337.56859889 -29.28547807 339.89253437 -31.63671875 342.21875 C-32.3596965 342.91794556 -33.08267426 343.61714111 -33.82756042 344.33752441 C-38.75688636 349.24118079 -42.58356771 354.05510722 -43.96875 361.0625 C-43.87626686 367.90625259 -42.55056507 373.05538085 -37.7890625 378.1328125 C-32.59073508 382.83173729 -27.96066006 384.95311672 -20.89453125 384.7421875 C-10.98636993 383.26147659 -4.25895398 376.046894 1.94160461 368.75263977 C6.63695545 363.26256324 11.664315 358.15390205 16.79286194 353.06947327 C18.31843977 351.55687668 19.84068086 350.04098798 21.36218262 348.52429199 C25.13866982 344.76104199 28.92063511 341.00331332 32.70245361 337.24542236 C35.91009868 334.05764332 39.11559295 330.86772958 42.31837463 327.67506409 C43.80453689 326.19529444 45.29371996 324.71861435 46.78308105 323.24206543 C51.40404503 318.63773165 55.90474116 313.99935459 60.13380432 309.0305481 C61.49743771 307.45039307 62.90959822 305.95042286 64.37109375 304.4609375 C77.96469938 290.44316289 86.05964207 273.59827994 85.765625 253.703125 C84.42726947 231.77468435 72.56412703 215.74596535 57.23632812 201.04858398 C55.57454339 199.38704163 54.06518075 197.66012096 52.546875 195.8671875 C48.3009326 190.9862182 43.73802203 186.43673388 39.14694214 181.88427734 C37.58776273 180.3380726 36.03191379 178.78858104 34.47680664 177.23828125 C31.17486864 173.94767017 27.86899584 170.66103038 24.5625 167.375 C20.72538524 163.56163495 16.88998325 159.74657851 13.05880737 155.92724609 C11.53940534 154.41423948 10.01698297 152.9043203 8.49438477 151.39453125 C3.79882304 146.72306545 -0.77397127 142.00882745 -5.04205322 136.9393158 C-6.87338842 134.88636285 -8.86099198 133.39363002 -11.1875 131.9375 C-11.92484375 131.46441406 -12.6621875 130.99132812 -13.421875 130.50390625 C-22.46798487 125.43738347 -32.19385149 128.47269124 -38.8125 135.8125 Z " fill="#2C694E" transform="translate(255.4375,-0.375)"/>
</svg>
