<?xml version="1.0" encoding="UTF-8"?>
<svg version="1.1" xmlns="http://www.w3.org/2000/svg" width="512" height="512">
<path d="M0 0 C1.32880634 -0.00551503 1.32880634 -0.00551503 2.68445724 -0.01114148 C5.65902369 -0.0221726 8.6335552 -0.02602122 11.60813904 -0.02983093 C13.73863842 -0.03609609 15.8691367 -0.04274294 17.99963379 -0.04974365 C25.00250996 -0.07078282 32.00538635 -0.08114691 39.00828552 -0.09111023 C41.42010446 -0.09515804 43.83192329 -0.09927497 46.24374199 -0.10346031 C57.57653994 -0.12251281 68.90933137 -0.1367429 80.24214226 -0.14507228 C93.31691583 -0.1548409 106.39151993 -0.18115054 119.46623379 -0.22157317 C129.57595829 -0.2517545 139.68563427 -0.26654314 149.79540294 -0.26985329 C155.83147794 -0.27220175 161.86737191 -0.28113569 167.90339851 -0.30631447 C173.58580496 -0.32963483 179.26791169 -0.33381231 184.95035362 -0.32355309 C187.03078332 -0.32305856 189.11122796 -0.3293543 191.19161224 -0.34310913 C207.52620995 -0.44502524 218.75483545 1.16255101 231.03172302 12.76826477 C237.45955448 19.58863556 241.44388684 28.90127389 241.4399271 38.26210403 C241.44191815 39.30115332 241.4439092 40.3402026 241.44596058 41.41073823 C241.44304774 42.55080756 241.4401349 43.69087689 241.43713379 44.86549377 C241.43841543 46.68371757 241.43841543 46.68371757 241.43972296 48.53867316 C241.44108676 51.90452325 241.43795582 55.27031538 241.43294489 58.63615847 C241.42863095 62.26529725 241.43008749 65.8944342 241.43084717 69.52357483 C241.4313718 75.81174901 241.4282313 82.09991283 241.42260933 88.38808441 C241.41448616 97.47975161 241.41187827 106.5714138 241.41062134 115.66308424 C241.40843211 130.41331653 241.4017755 145.16354329 241.39231873 159.91377258 C241.38314128 174.24319938 241.37606207 188.57262469 241.37181091 202.90205383 C241.37141683 204.22670353 241.37141683 204.22670353 241.37101478 205.57811382 C241.36970975 210.00831637 241.36844604 214.43851892 241.36720288 218.86872149 C241.35683427 255.62820857 241.33921945 292.38768936 241.31687927 329.14717102 C246.08234104 329.10251887 250.8465398 329.03218062 255.61131287 328.93965149 C257.2267696 328.91170463 258.84235639 328.89036164 260.45799255 328.87617493 C276.0363852 328.73130457 288.5487226 326.32389633 300.31687927 315.26826477 C311.00374066 303.86741049 312.59609283 290.95887841 312.73094177 275.92451477 C312.74968895 274.56973132 312.7692649 273.21495911 312.78962708 271.86019897 C312.84058003 268.32416972 312.88040069 264.78810275 312.91777039 261.25190735 C312.95804342 257.6316168 313.00902845 254.01147806 313.05906677 250.39131165 C313.15538867 243.31004306 313.23993084 236.22867882 313.31687927 229.14717102 C312.08646912 229.16288147 310.85605896 229.17859192 309.58836365 229.19477844 C304.9963086 229.24933364 300.40428186 229.28361383 295.81199646 229.31196594 C293.82952548 229.32699446 291.84708741 229.347423 289.86473083 229.37348938 C287.00494735 229.41013485 284.14560583 229.42695706 281.28562927 229.44013977 C280.40822083 229.45562363 279.53081238 229.47110748 278.6268158 229.48706055 C272.59345312 229.48868755 266.58080026 228.94863362 261.78990173 224.83654785 C257.27933542 219.81117532 256.07091924 214.52425368 256.04222107 207.9367218 C256.03268906 206.72751068 256.02315704 205.51829956 256.01333618 204.27244568 C256.01470329 202.32711441 256.01470329 202.32711441 256.01609802 200.34248352 C256.01220205 198.97691215 256.00786556 197.61134197 256.00311279 196.24577332 C255.99566463 193.3827879 255.99592826 190.51992575 256.00120544 187.65693665 C256.00581352 184.75150477 255.99901073 181.84649362 255.98069763 178.94111633 C255.82216888 153.58812232 256.51124707 131.32305664 272.31687927 110.14717102 C272.86086365 109.41756165 273.40484802 108.68795227 273.96531677 107.93623352 C281.53134119 98.59865216 292.21408318 91.5778643 303.31687927 87.14717102 C304.30687927 87.14717102 305.29687927 87.14717102 306.31687927 87.14717102 C305.55465596 85.6227244 304.79239857 84.09829483 304.03001404 82.57392883 C303.33597295 81.18551625 302.64246588 79.79683662 301.94944763 78.40791321 C299.76936825 74.0411295 297.57662166 69.68108972 295.37156677 65.32685852 C294.87568054 64.3441095 294.37979431 63.36136047 293.86888123 62.34883118 C292.88623519 60.40157817 291.90046063 58.45590035 290.91136169 56.51191711 C290.23230774 55.16347717 290.23230774 55.16347717 289.53953552 53.78779602 C289.13485046 52.98889954 288.73016541 52.19000305 288.31321716 51.36689758 C285.54093754 45.19057651 285.32802057 38.36578902 287.50437927 31.95967102 C290.06312527 26.00110974 293.8651292 21.50726179 299.82078552 18.85029602 C307.22077646 16.76579153 314.97198616 16.88259039 321.81687927 20.52217102 C327.02986512 24.21188179 329.5333656 28.49231436 332.31687927 34.14717102 C333.06073811 35.62290201 333.80561804 37.09811854 334.55125427 38.57295227 C336.26863097 41.9853051 337.9681794 45.40599056 339.66062927 48.83076477 C342.2164854 53.97923159 344.87510269 59.06872334 347.56687927 64.14717102 C353.43920008 75.25828896 353.43920008 75.25828896 355.87937927 80.02217102 C356.33441833 80.9064679 356.7894574 81.79076477 357.25828552 82.70185852 C359.45929479 87.7861087 359.46175764 92.81994632 359.45059204 98.28497314 C359.4528576 99.10016137 359.45512315 99.9153496 359.45745736 100.7552405 C359.46378346 103.4847754 359.46296887 106.21426046 359.46214294 108.94380188 C359.46513545 110.90209518 359.46853819 112.86038788 359.47232056 114.81867981 C359.48115915 120.13940514 359.48349872 125.46011439 359.48413634 130.78084636 C359.48484736 134.1088997 359.48698274 137.43694897 359.48963356 140.7650013 C359.49888915 152.38726689 359.50296851 164.00952101 359.50218201 175.63179016 C359.50158236 186.44422554 359.51211141 197.25661084 359.52792567 208.06903356 C359.54103488 217.36524468 359.54636443 226.6614395 359.5457266 235.95765978 C359.54547244 241.50358976 359.54827748 247.04947531 359.55890465 252.59539604 C359.56864165 257.81977183 359.56862665 263.04406127 359.56138802 268.26844025 C359.56034884 270.17667073 359.56266498 272.08490675 359.56874847 273.99312782 C359.65716613 303.67146714 352.84403642 328.45836173 331.62937927 350.33467102 C314.39223173 367.43361179 291.01470231 375.57470624 267.0058136 375.53399658 C264.40094228 375.5039977 261.79640202 375.44928453 259.19187927 375.39717102 C253.29312927 375.31467102 247.39437927 375.23217102 241.31687927 375.14717102 C241.31687927 393.29717102 241.31687927 411.44717102 241.31687927 430.14717102 C243.29687927 430.47717102 245.27687927 430.80717102 247.31687927 431.14717102 C257.79716614 435.59818964 265.36960637 442.89749919 270.31687927 453.14717102 C273.6784932 461.7823949 273.81369698 470.36260198 273.76292419 479.49116516 C273.75435412 481.84156827 273.78336877 484.18958092 273.81492615 486.53974915 C273.85095886 494.22403133 273.85690704 500.62347482 269.31687927 507.14717102 C265.07074369 511.0900112 262.60196263 512.27124664 256.88975239 512.2813921 C255.73011646 512.28584994 254.57048052 512.29030779 253.37570411 512.29490072 C252.09061885 512.29471635 250.80553359 512.29453199 249.48150635 512.29434204 C248.1112095 512.29763982 246.74091363 512.30136521 245.370619 512.30548352 C241.59192645 512.31552154 237.81324978 512.31922321 234.03454578 512.32187283 C229.96419082 512.32577059 225.8938485 512.33534934 221.82350159 512.34408569 C211.98662155 512.36386581 202.14974046 512.3739186 192.3128455 512.38281348 C187.68292503 512.38719414 183.05300572 512.39256155 178.42308617 512.39780235 C163.03601856 512.41481672 147.64895168 512.42931126 132.26187611 512.43655109 C128.26710827 512.43846106 124.27234044 512.44038138 120.27757263 512.44233704 C119.28466509 512.44282078 118.29175755 512.44330452 117.2687619 512.44380292 C101.18163132 512.45210451 85.09457507 512.47744269 69.00747696 512.50991771 C52.49902718 512.54297216 35.99061519 512.56099842 19.48213214 512.56419533 C10.21007505 512.56636201 0.93812633 512.57513354 -8.33389854 512.60065651 C-16.23002777 512.62234153 -24.12602233 512.63042482 -32.02217796 512.62068973 C-36.05141953 512.61613852 -40.0803831 512.61807861 -44.10958672 512.63745117 C-47.79915865 512.65503762 -51.48824888 512.65412232 -55.17782561 512.63855388 C-57.14298156 512.635043 -59.1081423 512.65123789 -61.07322854 512.66815835 C-67.81772771 512.61880637 -72.26299258 512.31289968 -77.68312073 508.14717102 C-83.48637938 500.81673904 -82.89919825 493.79490934 -82.9233551 484.8327179 C-82.93296546 482.6819192 -82.96396559 480.53211683 -82.99562073 478.38154602 C-83.09805945 465.14062269 -81.35859447 452.70099657 -72.30812073 442.45967102 C-71.00874573 441.31498352 -71.00874573 441.31498352 -69.68312073 440.14717102 C-69.17007385 439.65474915 -68.65702698 439.16232727 -68.12843323 438.65498352 C-63.29448108 434.17745181 -57.46775127 430.14717102 -50.68312073 430.14717102 C-50.68482947 428.92828997 -50.68482947 428.92828997 -50.68657273 427.68478507 C-50.75371453 379.51871197 -50.80518425 331.35264384 -50.83631672 283.18653331 C-50.84006881 277.40249776 -50.84395178 271.61846229 -50.84791565 265.83442688 C-50.84870258 264.68293499 -50.84948951 263.53144311 -50.85030029 262.34505752 C-50.86335235 243.7030117 -50.88700511 225.06099364 -50.91457912 206.41896429 C-50.94263884 187.28893298 -50.95929819 168.1589162 -50.96538621 149.02886516 C-50.96950147 137.22567988 -50.98249685 125.4225731 -51.00687013 113.61941198 C-51.02273429 105.52431486 -51.02751953 97.42925829 -51.02362486 89.33414676 C-51.02170439 84.66449075 -51.02463777 79.99497187 -51.04073715 75.32534027 C-51.05538324 71.0458974 -51.05604264 66.76668329 -51.04581741 62.48722968 C-51.04455446 60.94329798 -51.04832001 59.39935174 -51.05777027 57.85544845 C-51.15350547 41.2420787 -47.44994263 26.47008091 -35.68312073 14.14717102 C-25.27614962 5.03901622 -13.77357584 -0.00306286 0 0 Z M10.00437927 63.70967102 C7.03689143 67.99604234 7.15663483 71.36603809 7.13987732 76.44892883 C7.13330612 77.30765091 7.12673492 78.16637299 7.1199646 79.05111694 C7.10020957 81.90084414 7.08856351 84.75051856 7.07859802 87.60029602 C7.0745225 88.57287102 7.07044697 89.54544601 7.06624794 90.54749298 C7.04537682 95.69611398 7.03108017 100.84470825 7.02171326 105.99336243 C7.01065252 111.31094057 6.97625937 116.62809982 6.93654156 121.94552994 C6.91039034 126.03422319 6.90202269 130.12281647 6.89843178 134.211586 C6.89356119 136.17158077 6.88193379 138.13157094 6.86339378 140.09148407 C6.83903641 142.83727127 6.83996122 145.58197283 6.84690857 148.32783508 C6.83409851 149.13533707 6.82128845 149.94283905 6.80809021 150.77481079 C6.85645262 156.02779577 7.88135204 158.95477662 11.31687927 163.14717102 C15.51876226 166.83973486 18.99860992 167.2731107 24.48370361 167.28761292 C25.77493637 167.29332306 27.06616913 167.2990332 28.39653015 167.30491638 C29.83067312 167.30616173 31.2648162 167.30728683 32.69895935 167.30830383 C34.20689007 167.31293235 35.71481962 167.31795705 37.2227478 167.323349 C41.32201539 167.33647196 45.42126661 167.34291777 49.52055192 167.34735966 C52.08167316 167.3502906 54.64278993 167.35439545 57.20390892 167.35886383 C65.21722194 167.37253859 73.23052474 167.38220531 81.24384862 167.38606572 C90.4937358 167.39054633 99.74347519 167.40809441 108.99331743 167.43706632 C116.14330944 167.4586837 123.29325987 167.46877004 130.44328421 167.47010684 C134.71358812 167.47115485 138.9837531 167.47706162 143.2540226 167.49492645 C147.2718526 167.51140812 151.28943927 167.51356225 155.30729103 167.50478745 C156.78026989 167.50401711 158.25326185 167.50835932 159.72620773 167.5182457 C161.74046665 167.53097025 163.75482339 167.52329484 165.769104 167.5146637 C166.89532575 167.51613026 168.02154749 167.51759682 169.18189716 167.51910782 C174.72513286 166.86145388 178.74722109 164.37787702 182.31687927 160.14717102 C183.5933585 156.31773334 183.4725286 152.7068878 183.47801208 148.71601868 C183.48297699 147.85554428 183.48794189 146.99506989 183.49305725 146.10852051 C183.507673 143.25941674 183.51447963 140.41036863 183.52000427 137.56123352 C183.52575587 135.58209735 183.5315136 133.6029612 183.53727722 131.62382507 C183.5477853 127.47275025 183.55362935 123.32169478 183.55711365 119.17060852 C183.56260029 113.85191653 183.58663282 108.53348029 183.6150856 103.21486855 C183.63370945 99.12621818 183.63891743 95.03762948 183.64044952 90.94894028 C183.64347676 88.9881335 183.65150768 87.02732783 183.6646347 85.06656265 C183.68169106 82.32321452 183.67981605 79.58049209 183.67332458 76.83711243 C183.68714676 75.6228231 183.68714676 75.6228231 183.70124817 74.38400269 C183.66709987 69.77666893 183.1705912 66.81043489 180.31687927 63.14717102 C175.59944964 58.90148435 172.40805094 58.02327484 166.15005493 58.00672913 C164.85882217 58.00101898 163.56758942 57.99530884 162.23722839 57.98942566 C160.80308542 57.98818031 159.36894234 57.98705521 157.93479919 57.98603821 C156.42686847 57.98140969 154.91893893 57.97638499 153.41101074 57.97099304 C149.31174315 57.95787008 145.21249194 57.95142427 141.11320662 57.94698238 C138.55208538 57.94405144 135.99096862 57.93994659 133.42984962 57.93547821 C125.4165366 57.92180345 117.40323381 57.91213673 109.38990992 57.90827632 C100.14002275 57.90379571 90.89028336 57.88624763 81.64044112 57.85727572 C74.49044911 57.83565834 67.34049867 57.82557201 60.19047433 57.8242352 C55.92017043 57.8231872 51.65000544 57.81728042 47.37973595 57.79941559 C43.36190595 57.78293392 39.34431928 57.78077979 35.32646751 57.7895546 C33.85348865 57.79032493 32.3804967 57.78598272 30.90755081 57.77609634 C28.89329189 57.76337179 26.87893516 57.7710472 24.86465454 57.77967834 C23.7384328 57.77821178 22.61221106 57.77674522 21.45186138 57.77523422 C16.53432857 58.35865427 13.30727443 60.04970611 10.00437927 63.70967102 Z " fill="#2C694E" transform="translate(117.68312072753906,-0.1471710205078125)"/>
</svg>
