<?xml version="1.0" encoding="UTF-8"?>
<svg version="1.1" xmlns="http://www.w3.org/2000/svg" width="512" height="512">
<path d="M0 0 C4.7344316 1.91391916 7.72684393 5.45368786 10 10 C10.51363064 21.3244764 9.67931105 32.62047837 8.82250977 43.90576172 C8.69555713 45.63568028 8.56911787 47.36563659 8.44314575 49.09562683 C8.10332146 53.74229792 7.75632203 58.38840695 7.40785336 63.0344367 C7.04255353 67.92077881 6.68377823 72.80760033 6.32420349 77.69436646 C5.72025187 85.88995923 5.11201523 94.08522435 4.50073242 102.28027344 C3.64027103 113.81607945 2.7881274 125.35248933 1.9373771 136.88901496 C1.34531591 144.91309964 0.75116554 152.93702985 0.15669131 160.96093607 C0.01321579 162.89779103 -0.13019065 164.83465112 -0.27352786 166.77151632 C-0.68200971 172.29064894 -1.09179275 177.80968173 -1.50367355 183.32856178 C-1.62785856 184.99495172 -1.75162058 186.66137324 -1.87491417 188.32782936 C-2.48454919 196.56319415 -3.12570656 204.78747769 -4 213 C-3.41708348 212.99723462 -2.83416697 212.99446924 -2.23358631 212.99162006 C11.95497687 212.92534536 26.14351682 212.87571221 40.33220196 212.84456348 C47.19377389 212.82909951 54.05524246 212.80801909 60.91674805 212.77368164 C67.53678469 212.7405684 74.15674206 212.72315318 80.77686501 212.71536827 C83.30426538 212.70981941 85.8316598 212.69898405 88.35901451 212.68280983 C91.89531603 212.66107599 95.43117188 212.65803145 98.9675293 212.65942383 C100.01553711 212.648638 101.06354492 212.63785217 102.14331055 212.6267395 C109.16017217 212.6566928 112.46281657 213.80110769 117.8125 218.4375 C120.78388916 222.24865503 120.52154757 226.07958179 120.42602539 230.75170898 C119.69739174 236.30727957 117.14894714 240.55742131 114.3125 245.3125 C113.72452637 246.34592529 113.13655273 247.37935059 112.53076172 248.4440918 C111.30645859 250.59127338 110.07134444 252.73232545 108.82568359 254.8671875 C106.57602068 258.72753445 104.38675596 262.62002288 102.19848633 266.51538086 C100.59841169 269.3597649 98.98757398 272.19784253 97.375 275.03515625 C91.81552442 284.83764708 86.37077883 294.70439898 80.90722656 304.56054688 C77.77506586 310.20902101 74.63731567 315.85438797 71.5 321.5 C67.73682728 328.27263135 63.9743485 335.04564423 60.21484375 341.8203125 C53.58931321 353.75721877 46.94370133 365.68240929 40.26708984 377.59082031 C33.47670389 389.7079334 26.73940719 401.8544841 20 414 C12.11959732 428.20177671 4.22759099 442.39656378 -3.7175293 456.56225586 C-7.46583869 463.2490449 -11.19526758 469.94610393 -14.91259766 476.65014648 C-16.81819419 480.08656004 -18.72926828 483.51991178 -20.640625 486.953125 C-22.62493707 490.51782355 -24.59707419 494.08819855 -26.546875 497.671875 C-27.23935579 498.92720888 -27.93203846 500.18243144 -28.625 501.4375 C-29.44871094 502.95150391 -29.44871094 502.95150391 -30.2890625 504.49609375 C-32.60656419 507.88768869 -35.33023014 510.16511507 -39 512 C-43.82889743 512.40435212 -48.40690481 512.6440172 -52.9375 510.8125 C-55.87529227 508.23080377 -58.24572228 505.50855543 -60 502 C-60.51363064 490.6755236 -59.67931105 479.37952163 -58.82250977 468.09423828 C-58.69555713 466.36431972 -58.56911787 464.63436341 -58.44314575 462.90437317 C-58.10332146 458.25770208 -57.75632203 453.61159305 -57.40785336 448.9655633 C-57.04255353 444.07922119 -56.68377823 439.19239967 -56.32420349 434.30563354 C-55.72025187 426.11004077 -55.11201523 417.91477565 -54.50073242 409.71972656 C-53.64027103 398.18392055 -52.7881274 386.64751067 -51.9373771 375.11098504 C-51.34531591 367.08690036 -50.75116554 359.06297015 -50.15669131 351.03906393 C-50.01321579 349.10220897 -49.86980935 347.16534888 -49.72647214 345.22848368 C-49.31799029 339.70935106 -48.90820725 334.19031827 -48.49632645 328.67143822 C-48.37214144 327.00504828 -48.24837942 325.33862676 -48.12508583 323.67217064 C-47.51545081 315.43680585 -46.87429344 307.21252231 -46 299 C-46.58291652 299.00276538 -47.16583303 299.00553076 -47.76641369 299.00837994 C-61.95497687 299.07465464 -76.14351682 299.12428779 -90.33220196 299.15543652 C-97.19377389 299.17090049 -104.05524246 299.19198091 -110.91674805 299.22631836 C-117.53678469 299.2594316 -124.15674206 299.27684682 -130.77686501 299.28463173 C-133.30426538 299.29018059 -135.8316598 299.30101595 -138.35901451 299.31719017 C-141.89531603 299.33892401 -145.43117188 299.34196855 -148.9675293 299.34057617 C-150.53954102 299.35675491 -150.53954102 299.35675491 -152.14331055 299.3732605 C-159.16017217 299.3433072 -162.46281657 298.19889231 -167.8125 293.5625 C-170.78388916 289.75134497 -170.52154757 285.92041821 -170.42602539 281.24829102 C-169.69739174 275.69272043 -167.14894714 271.44257869 -164.3125 266.6875 C-163.72452637 265.65407471 -163.13655273 264.62064941 -162.53076172 263.5559082 C-161.30645859 261.40872662 -160.07134444 259.26767455 -158.82568359 257.1328125 C-156.57602068 253.27246555 -154.38675596 249.37997712 -152.19848633 245.48461914 C-150.59841169 242.6402351 -148.98757398 239.80215747 -147.375 236.96484375 C-141.81552442 227.16235292 -136.37077883 217.29560102 -130.90722656 207.43945312 C-127.15272509 200.66866246 -123.39060526 193.9021022 -119.62988281 187.13476562 C-116.47726786 181.46104544 -113.3265631 175.78628076 -110.1796875 170.109375 C-104.34706716 159.59168202 -98.49738889 149.08537931 -92.5625 138.625 C-87.68935515 130.03311352 -82.88984291 121.40223722 -78.125 112.75 C-77.78915894 112.14019287 -77.45331787 111.53038574 -77.1072998 110.90209961 C-75.74845772 108.43458701 -74.38967509 105.96704167 -73.03097534 103.49945068 C-64.44104981 87.90357581 -55.78208788 72.34752819 -46.99462891 56.86206055 C-41.8300695 47.74074402 -36.77258521 38.56111682 -31.73071289 29.37158203 C-30.46844692 27.07464267 -29.20198154 24.78000565 -27.93115234 22.48779297 C-26.58120272 20.04969179 -25.24437137 17.60672121 -23.91650391 15.15673828 C-23.22219614 13.89717612 -22.52738637 12.63789051 -21.83203125 11.37890625 C-21.21690674 10.25170166 -20.60178223 9.12449707 -19.96801758 7.96313477 C-14.69324888 0.0212085 -8.93438344 -0.712161 0 0 Z " fill="#2C694E" transform="translate(281,0)"/>
<path d="M0 0 C6.37477168 1.27622421 12.22748301 3.00120672 18.25 5.4375 C19.10335937 5.78167969 19.95671875 6.12585937 20.8359375 6.48046875 C35.27647562 12.45876733 49.37646567 19.74752313 62 29 C63.051875 29.76828125 64.10375 30.5365625 65.1875 31.328125 C72.90594981 37.06842224 80.05788779 43.34635857 87 50 C87.58539551 50.55284668 88.17079102 51.10569336 88.77392578 51.67529297 C121.61821136 82.80776793 143.96383228 125.22081599 151 170 C151.17370117 171.04502686 151.34740234 172.09005371 151.52636719 173.16674805 C153.15444736 183.89655094 153.39910423 194.47740348 153.375 205.3125 C153.37445618 206.23453217 153.37391235 207.15656433 153.37335205 208.10653687 C153.31168522 230.91561637 150.27489231 252.31313677 143 274 C142.71672852 274.84836426 142.43345703 275.69672852 142.14160156 276.57080078 C124.04677812 329.58563433 84.71460277 373.98997408 34.84204102 399.29492188 C19.95620177 406.58886802 3.47853858 413.53879115 -13 416 C-11.7082569 411.77400407 -10.09794342 408.10176592 -7.91796875 404.26171875 C-7.31533203 403.19373047 -6.71269531 402.12574219 -6.09179688 401.02539062 C-5.46337891 399.92388672 -4.83496094 398.82238281 -4.1875 397.6875 C-2.9517471 395.50394916 -1.71606873 393.32035613 -0.48046875 391.13671875 C0.12345703 390.0912085 0.72738281 389.04569824 1.34960938 387.96850586 C2.99814058 385.09862388 2.99814058 385.09862388 4.18164062 382.39282227 C7.41227298 375.4262275 11.95214883 373.4158184 18.875 370.5625 C20.96082956 369.63216752 23.04288174 368.6933204 25.12109375 367.74609375 C26.13155762 367.2857373 27.14202148 366.82538086 28.18310547 366.35107422 C34.59966107 363.27348549 40.3342907 359.27743313 46 355 C46.63953613 354.51837402 47.27907227 354.03674805 47.93798828 353.54052734 C62.80296451 342.19706144 76.27616956 329.37528649 87 314 C87.43231934 313.39027344 87.86463867 312.78054688 88.31005859 312.15234375 C107.53519163 284.77674978 120.99938825 250.35139373 121.203125 216.57421875 C121.21371445 215.40286125 121.21371445 215.40286125 121.22451782 214.20783997 C121.53599318 190.92622918 121.53599318 190.92622918 118 168 C117.80132324 167.14664063 117.60264648 166.29328125 117.39794922 165.4140625 C107.24664227 122.46681034 82.36281068 82.5622737 46 57 C45.38737305 56.56478027 44.77474609 56.12956055 44.14355469 55.68115234 C29.95503159 45.7190741 14.32036136 37.8438043 -2 32 C-2.28967826 8.72918009 -2.28967826 8.72918009 0 0 Z " fill="#2C694E" transform="translate(318,50)"/>
<path d="M0 0 C-1.33820391 4.41211029 -3.08037694 8.22908577 -5.3359375 12.24609375 C-5.65656158 12.82029556 -5.97718567 13.39449738 -6.30752563 13.98609924 C-7.32522905 15.80596532 -8.34999334 17.62173938 -9.375 19.4375 C-10.38859517 21.24655963 -11.40081782 23.05637916 -12.41246033 24.86653137 C-13.37854906 26.58570195 -14.35821023 28.29722297 -15.33813477 30.00854492 C-16.96476307 32.83295598 -16.96476307 32.83295598 -17.98803711 35.2199707 C-20.72150331 41.25921489 -26.06724929 42.86847689 -31.8125 45.3125 C-41.60216833 49.74524109 -50.42685074 54.52754073 -59 61 C-59.63953613 61.48162598 -60.27907227 61.96325195 -60.93798828 62.45947266 C-75.22190684 73.35953335 -88.42059485 85.66364567 -98.83935547 100.36523438 C-99.61462148 101.45719509 -100.40021248 102.54189652 -101.19580078 103.61914062 C-120.98123153 130.44522525 -134.00095014 165.90754971 -134.203125 199.42578125 C-134.21018463 200.20668625 -134.21724426 200.98759125 -134.22451782 201.79216003 C-134.53599318 225.07377082 -134.53599318 225.07377082 -131 248 C-130.80132324 248.85335937 -130.60264648 249.70671875 -130.39794922 250.5859375 C-120.24664227 293.53318966 -95.36281068 333.4377263 -59 359 C-58.38737305 359.43521973 -57.77474609 359.87043945 -57.14355469 360.31884766 C-42.95503159 370.2809259 -27.32036136 378.1561957 -11 384 C-10.71032174 407.27081991 -10.71032174 407.27081991 -13 416 C-19.37458761 414.72381264 -25.2278742 412.9994763 -31.25 410.5625 C-32.10625977 410.21614502 -32.96251953 409.86979004 -33.84472656 409.51293945 C-77.44159744 391.42681481 -114.48582439 358.91851284 -138 318 C-138.44585449 317.22736816 -138.89170898 316.45473633 -139.35107422 315.65869141 C-150.66532013 295.77460715 -158.39098075 274.394574 -163 252 C-163.16226074 251.2668457 -163.32452148 250.53369141 -163.49169922 249.77832031 C-170.94344707 215.00349702 -167.2199284 175.44723777 -156 142 C-155.71672852 141.15163574 -155.43345703 140.30327148 -155.14160156 139.42919922 C-148.70912422 120.58310678 -139.8659604 102.05532314 -128 86 C-127.23300781 84.95070313 -126.46601562 83.90140625 -125.67578125 82.8203125 C-120.67435226 76.09521039 -115.28674759 69.85401997 -109.54296875 63.75390625 C-107.75473728 61.81734222 -106.06365644 59.89049156 -104.3984375 57.85546875 C-101.25352853 54.1112856 -97.73179746 51.1399431 -94 48 C-93.13503906 47.2471875 -92.27007812 46.494375 -91.37890625 45.71875 C-78.66186412 34.81349813 -64.83492536 25.75807894 -50 18 C-49.36610352 17.66403809 -48.73220703 17.32807617 -48.07910156 16.98193359 C-34.5959438 9.93095028 -15.33608745 0 0 0 Z " fill="#2C694E" transform="translate(207,46)"/>
</svg>
