<?xml version="1.0" encoding="UTF-8"?>
<svg version="1.1" xmlns="http://www.w3.org/2000/svg" width="512" height="512">
<path d="M0 0 C4.85901244 3.17272278 8.96634237 6.86832806 13.0390625 10.984375 C13.66296875 11.57476563 14.286875 12.16515625 14.9296875 12.7734375 C26.55161022 24.65711523 32.0390625 42.72418062 32.0390625 58.984375 C30.70935957 78.86758917 23.57162844 95.19259953 9.0390625 108.984375 C0.90052278 115.68000099 -10.13365656 122.984375 -20.9609375 122.984375 C-20.9609375 156.974375 -20.9609375 190.964375 -20.9609375 225.984375 C26.5590625 225.984375 74.0790625 225.984375 123.0390625 225.984375 C122.7090625 192.324375 122.3790625 158.664375 122.0390625 123.984375 C115.1090625 121.509375 115.1090625 121.509375 108.0390625 118.984375 C100.32833893 114.94542456 94.24031903 110.07040548 88.0390625 103.984375 C87.3996875 103.36949219 86.7603125 102.75460938 86.1015625 102.12109375 C74.40013591 89.9234013 69.34071587 71.93888552 69.56835938 55.34936523 C70.36281863 36.90988148 78.19696531 20.4306496 91.5 7.61328125 C107.74690215 -6.51342399 125.37112627 -10.20980266 146.36914062 -9.22265625 C161.84027727 -8.0229924 175.34753181 0.12283764 186.0390625 10.984375 C186.68617188 11.63277344 187.33328125 12.28117187 188 12.94921875 C199.71151617 25.4534358 205.49526694 42.9168999 205.01757812 59.88720703 C204.0226756 79.44267318 195.98448619 95.92421047 181.6640625 109.234375 C173.51910039 116.15201405 163.03751423 122.984375 152.0390625 122.984375 C152.0390625 156.974375 152.0390625 190.964375 152.0390625 225.984375 C199.5590625 225.984375 247.0790625 225.984375 296.0390625 225.984375 C295.7090625 192.324375 295.3790625 158.664375 295.0390625 123.984375 C288.1090625 121.509375 288.1090625 121.509375 281.0390625 118.984375 C273.32833893 114.94542456 267.24031903 110.07040548 261.0390625 103.984375 C260.3996875 103.36949219 259.7603125 102.75460938 259.1015625 102.12109375 C246.85683625 89.35705991 242.59624899 71.26066469 242.765625 54.0859375 C243.64044246 35.93997148 252.36410982 19.22509231 265.34375 6.7734375 C282.03368973 -7.50877322 300.73269643 -10.30470879 322.0390625 -9.015625 C336.3216774 -7.44576862 349.21177614 0.87830038 359.0390625 10.984375 C359.74546875 11.67015625 360.451875 12.3559375 361.1796875 13.0625 C372.57699401 24.80781587 377.75844525 41.05108732 378.2265625 57.171875 C377.90947184 75.65826033 371.11814121 92.13653836 358.5234375 105.59765625 C349.95175413 113.83240238 337.39026518 122.984375 325.0390625 122.984375 C325.0390625 194.264375 325.0390625 265.544375 325.0390625 338.984375 C327.3490625 339.314375 329.6590625 339.644375 332.0390625 339.984375 C347.25810468 344.12159035 360.39904693 355.83297954 368.4375 369.046875 C373.76417529 378.816777 377.24446901 388.87898507 378.0390625 399.984375 C378.09320313 400.64824219 378.14734375 401.31210937 378.203125 401.99609375 C378.98000376 420.53524592 371.60953228 436.78276429 359.79296875 450.61328125 C349.71501084 461.45246423 334.5623418 470.17348867 319.55053711 471.14550781 C296.97204308 471.50889333 278.9455839 468.21893609 262.0390625 451.984375 C249.51273904 439.12071787 243.14140346 422.27450527 242.6640625 404.484375 C243.14717003 384.21486362 250.8985444 367.0971526 265.5078125 353.11328125 C274.67530554 345.40296689 283.57413188 342.07899308 295.0390625 337.984375 C295.3690625 310.594375 295.6990625 283.204375 296.0390625 254.984375 C248.5190625 254.984375 200.9990625 254.984375 152.0390625 254.984375 C152.0390625 282.704375 152.0390625 310.424375 152.0390625 338.984375 C154.3490625 339.314375 156.6590625 339.644375 159.0390625 339.984375 C174.75100969 344.25558394 187.72951132 356.40680693 196.0390625 369.984375 C205.23303985 387.15474892 207.26820188 405.72195667 202.0703125 424.48046875 C196.38754825 442.00872471 184.78656484 455.81659007 168.48046875 464.328125 C152.94918881 471.80288402 133.52235342 474.31118466 116.7890625 469.08203125 C98.26150301 461.68679799 83.57883038 450.17743097 75.2956543 431.66894531 C67.54406203 413.27313306 68.32422217 394.65971227 75.4765625 376.29296875 C83.28352132 359.1964796 97.60764847 346.71680305 115.0390625 339.984375 C117.3490625 339.324375 119.6590625 338.664375 122.0390625 337.984375 C122.3690625 310.594375 122.6990625 283.204375 123.0390625 254.984375 C111.41429687 255.01917969 99.78953125 255.05398438 87.8125 255.08984375 C80.45702926 255.1051686 73.10157006 255.11973425 65.74609375 255.13085938 C54.06587782 255.14866738 42.38572677 255.16961395 30.70556641 255.21069336 C22.19935451 255.24059565 13.6931952 255.25995 5.18693221 255.26664048 C0.68294937 255.27055133 -3.82088304 255.27974242 -8.32481766 255.30156517 C-12.56502027 255.32194342 -16.80501064 255.32820609 -21.04525757 255.32369804 C-22.60047942 255.32452265 -24.15570844 255.3304804 -25.71088791 255.34199142 C-27.83727263 255.35695694 -29.96286005 255.35331444 -32.08926392 255.34513855 C-33.87293334 255.34928662 -33.87293334 255.34928662 -35.69263649 255.35351849 C-41.31235976 254.71878985 -45.3411648 252.27447598 -48.9609375 247.984375 C-49.94267296 245.03916861 -50.09687609 243.10141224 -50.11915588 240.02998352 C-50.1289447 239.00774689 -50.13873352 237.98551025 -50.14881897 236.93229675 C-50.15457443 235.81164322 -50.1603299 234.69098969 -50.16625977 233.53637695 C-50.17615936 232.35575684 -50.18605896 231.17513672 -50.19625854 229.95874023 C-50.22244984 226.72143055 -50.24431047 223.48412608 -50.26426053 220.246773 C-50.28612903 216.86347822 -50.31351349 213.48022824 -50.34031677 210.0969696 C-50.39023198 203.69034554 -50.43517515 197.28369659 -50.47833914 190.87702388 C-50.52772153 183.58323042 -50.58263594 176.28948192 -50.63801873 168.99573195 C-50.75182078 153.99198819 -50.85866369 138.9882021 -50.9609375 123.984375 C-52.37028564 123.49626343 -52.37028564 123.49626343 -53.80810547 122.99829102 C-55.67426514 122.34364868 -55.67426514 122.34364868 -57.578125 121.67578125 C-59.42059814 121.03298218 -59.42059814 121.03298218 -61.30029297 120.37719727 C-77.69768586 114.13822658 -90.2156085 101.6732567 -97.421875 85.7578125 C-104.65412827 67.90710645 -105.46871953 48.99678664 -98.16357422 31.02246094 C-90.97887062 14.76640831 -78.69786117 2.03986252 -62.09765625 -4.64453125 C-41.32077508 -12.44881569 -19.3308587 -11.00589036 0 0 Z " fill="#2C694E" transform="translate(102.9609375,9.015625)"/>
</svg>
