<?xml version="1.0" encoding="UTF-8"?>
<svg version="1.1" xmlns="http://www.w3.org/2000/svg" width="512" height="512">
<path d="M0 0 C1.07719394 -0.00262956 1.07719394 -0.00262956 2.17614937 -0.00531223 C4.57100099 -0.00994643 6.96579122 -0.00751343 9.36064529 -0.00507832 C11.09966368 -0.00694759 12.83868164 -0.00924876 14.57769895 -0.01194364 C19.34792574 -0.01805366 24.11813498 -0.01792898 28.88836479 -0.01674926 C34.03642547 -0.01654506 39.18448054 -0.02206593 44.3325386 -0.02680683 C54.41538916 -0.03510956 64.49823387 -0.0378615 74.58108756 -0.03841921 C82.77778231 -0.03889455 90.97447514 -0.04095018 99.17116928 -0.04411983 C122.4155541 -0.05292536 145.65993431 -0.05753937 168.90432081 -0.05678936 C170.15715703 -0.0567494 171.40999326 -0.05670945 172.70079422 -0.05666828 C173.95516192 -0.0566274 175.20952961 -0.05658652 176.50190845 -0.0565444 C196.83052673 -0.05613795 217.15912649 -0.06570745 237.48773941 -0.07980665 C258.36616106 -0.0941728 279.24457367 -0.1010767 300.12300038 -0.10021287 C311.84257111 -0.09988099 323.56212242 -0.10262439 335.28168869 -0.11339092 C345.25991697 -0.12249905 355.23811703 -0.12466858 365.21634766 -0.1178815 C370.30537927 -0.1146179 375.39435673 -0.11455388 380.48338318 -0.12323475 C385.14679077 -0.13110765 389.81010135 -0.12966021 394.4735066 -0.12095062 C396.15583905 -0.11941738 397.83817878 -0.12122512 399.52050266 -0.12681069 C417.38504377 -0.18217066 432.85247021 1.62784427 446.59141922 14.05832195 C457.55272739 25.4364099 459.95645155 38.04082068 459.73595047 53.1247282 C459.51406686 59.06701404 458.22951521 63.86390831 455.45860672 69.12863445 C455.04610672 69.97425945 454.63360672 70.81988445 454.20860672 71.69113445 C448.00128474 83.25932541 438.02502296 90.17469782 425.83360672 94.37863445 C419.50766284 95.78439976 413.38647537 96.25368738 406.91721344 96.25726891 C405.8400195 96.25989846 405.8400195 96.25989846 404.74106407 96.26258114 C402.34621245 96.26721534 399.95142222 96.26478233 397.55656815 96.26234722 C395.81754976 96.26421649 394.0785318 96.26651766 392.33951449 96.26921254 C387.5692877 96.27532256 382.79907846 96.27519789 378.02884865 96.27401817 C372.88078797 96.27381396 367.7327329 96.27933484 362.58467484 96.28407574 C352.50182428 96.29237846 342.41897957 96.29513041 332.33612588 96.29568812 C324.13943113 96.29616345 315.9427383 96.29821908 307.74604416 96.30138874 C284.50165934 96.31019426 261.25727913 96.31480827 238.01289263 96.31405827 C236.76005641 96.31401831 235.50722018 96.31397835 234.21641922 96.31393719 C232.96205152 96.31389631 231.70768383 96.31385543 230.41530499 96.31381331 C210.08668671 96.31340686 189.75808695 96.32297635 169.42947403 96.33707555 C148.55105238 96.35144171 127.67263977 96.35834561 106.79421306 96.35748178 C95.07464233 96.35714989 83.35509102 96.35989329 71.63552475 96.37065983 C61.65729647 96.37976796 51.67909641 96.38193749 41.70086578 96.3751504 C36.61183417 96.37188681 31.52285671 96.37182278 26.43383026 96.38050365 C21.77042267 96.38837656 17.10711209 96.38692911 12.44370684 96.37821952 C10.76137439 96.37668628 9.07903466 96.37849402 7.39671078 96.3840796 C-10.46783033 96.43943957 -25.93525677 94.62942463 -39.67420578 82.19894695 C-50.63551395 70.82085901 -53.03923811 58.21644823 -52.81873703 43.1325407 C-52.59685342 37.19025487 -51.31230177 32.39336059 -48.54139328 27.12863445 C-48.12889328 26.28300945 -47.71639328 25.43738445 -47.29139328 24.56613445 C-41.0840713 12.9979435 -31.10780952 6.08257109 -18.91639328 1.87863445 C-12.5904494 0.47286915 -6.46926193 0.00358153 0 0 Z " fill="#2C694F" transform="translate(52.5413932800293,207.87136554718018)"/>
<path d="M0 0 C0.73471343 -0.00350607 1.46942686 -0.00701215 2.22640434 -0.01062447 C4.67773776 -0.01989645 7.12883141 -0.01502609 9.58017445 -0.01015663 C11.3597296 -0.01389501 13.13928311 -0.01849729 14.91883403 -0.02388728 C19.80116002 -0.0361095 24.68341745 -0.03585772 29.56575525 -0.03349853 C34.83449855 -0.03309016 40.10321994 -0.04413141 45.37195301 -0.05361366 C55.69176587 -0.07022057 66.01155588 -0.07572308 76.33138099 -0.07683842 C84.72114744 -0.07778907 93.11090636 -0.08190025 101.50067043 -0.08823967 C125.29336772 -0.10585153 149.08604697 -0.11507867 172.87875082 -0.11357872 C174.80241601 -0.11345885 174.80241601 -0.11345885 176.76494312 -0.11333656 C178.04895466 -0.1132548 179.33296619 -0.11317304 180.65588716 -0.1130888 C201.46237599 -0.112276 222.26879242 -0.13141232 243.0752603 -0.1596133 C264.44524602 -0.18834922 285.81519642 -0.20215319 307.18520194 -0.20042574 C319.18037207 -0.19976207 331.1754663 -0.20524446 343.17061901 -0.22678185 C353.38416764 -0.24500295 363.59760595 -0.24933331 373.81116381 -0.235763 C379.01986752 -0.229238 384.22835967 -0.22909936 389.43704319 -0.2464695 C394.21100789 -0.26222582 398.98459371 -0.25931037 403.75854931 -0.24190123 C405.47993152 -0.23883698 407.20134219 -0.24244193 408.92269083 -0.25362138 C425.11352062 -0.35175843 439.34238241 2.55628481 451.55522633 14.00726891 C462.415484 25.54766393 465.18029996 37.9172593 464.71928883 53.32367516 C463.87227996 67.24072341 456.0583399 77.16870793 446.11772633 86.25726891 C437.35808839 92.48634477 428.31297733 95.50297914 417.57921791 95.51453781 C416.47208264 95.51979692 416.47208264 95.51979692 415.342581 95.52516228 C412.87976114 95.53443492 410.4171799 95.52956373 407.95435047 95.52469444 C406.16654573 95.52843279 404.37874261 95.53303505 402.59094208 95.53842509 C397.68581303 95.55064772 392.78075223 95.55039548 387.87561142 95.54803634 C382.58232806 95.54762798 377.28906652 95.55866912 371.99579334 95.56815147 C361.62785356 95.5847586 351.25993653 95.5902609 340.89198456 95.59137623 C332.46312582 95.59232687 324.03427457 95.596438 315.60541821 95.60277748 C291.70204588 95.6203894 267.79869151 95.62961647 243.89531264 95.62811653 C241.96268647 95.62799666 241.96268647 95.62799666 239.99101734 95.62787437 C238.70102458 95.62779261 237.41103182 95.62771085 236.08194836 95.62762661 C215.17846178 95.62681381 194.27504727 95.64595019 173.37158153 95.67415111 C151.90215475 95.70288674 130.43276312 95.71669101 108.96331662 95.71496356 C96.91225528 95.71429987 84.86126949 95.7197827 72.81022549 95.74131966 C62.54909987 95.75954038 52.28808406 95.76387143 42.02694926 95.75030081 C36.79394271 95.74377562 31.56114674 95.74363788 26.32816029 95.76100731 C21.53199111 95.77676277 16.73619906 95.77384905 11.94003894 95.75643905 C10.21058142 95.7533746 8.48109558 95.75698046 6.75167147 95.7681592 C-8.68643794 95.86129153 -21.57220968 93.53122229 -33.38227367 82.81976891 C-34.14539867 81.97414391 -34.90852367 81.12851891 -35.69477367 80.25726891 C-36.17559399 79.76871422 -36.6564143 79.28015953 -37.15180492 78.77680016 C-46.82936576 68.46223532 -48.1731419 56.78510324 -47.96821117 43.32758141 C-47.56753751 32.57286551 -43.40895924 24.49218881 -36.69477367 16.25726891 C-36.19461742 15.62047203 -35.69446117 14.98367516 -35.17914867 14.32758141 C-26.60769574 4.58729398 -12.64581746 0.01368121 0 0 Z " fill="#2C694E" transform="translate(47.69477367401123,352.74273109436035)"/>
<path d="M0 0 C0.73809018 -0.00350607 1.47618036 -0.00701215 2.23663691 -0.01062447 C4.69945677 -0.01989711 7.16203801 -0.01502592 9.62486744 -0.01015663 C11.41267218 -0.01389498 13.2004753 -0.01849724 14.98827583 -0.02388728 C19.89340488 -0.03610991 24.79846568 -0.03585767 29.70360649 -0.03349853 C34.99688985 -0.03309017 40.29015139 -0.04413131 45.58342457 -0.05361366 C55.95136435 -0.07022079 66.31928138 -0.07572309 76.68723335 -0.07683842 C85.11609209 -0.07778906 93.54494334 -0.08190019 101.97379971 -0.08823967 C125.87717203 -0.10585158 149.7805264 -0.11507866 173.68390527 -0.11357872 C175.61653144 -0.11345885 175.61653144 -0.11345885 177.58820057 -0.11333656 C178.87819333 -0.1132548 180.1681861 -0.11317304 181.49726955 -0.1130888 C202.40075613 -0.112276 223.30417064 -0.13141237 244.20763638 -0.1596133 C265.67706316 -0.18834892 287.14645479 -0.2021532 308.61590129 -0.20042574 C320.66696263 -0.19976206 332.71794842 -0.20524489 344.76899242 -0.22678185 C355.03011804 -0.24500257 365.29113385 -0.24933362 375.55226865 -0.235763 C380.7852752 -0.22923781 386.01807117 -0.22910006 391.25105762 -0.2464695 C396.0472268 -0.26222496 400.84301885 -0.25931123 405.63917897 -0.24190123 C407.36863649 -0.23883679 409.09812233 -0.24244265 410.82754644 -0.25362138 C426.26565585 -0.34675371 439.15142759 1.98331552 450.96149158 12.69476891 C451.72461658 13.54039391 452.48774158 14.38601891 453.27399158 15.25726891 C453.99522205 15.97269859 453.99522205 15.97269859 454.73102283 16.70258141 C464.21158087 26.63916628 465.74519183 39.09945866 465.54742908 52.15180016 C465.14898509 62.92359546 460.99983532 71.0080503 454.27399158 79.25726891 C453.77383533 79.89406578 453.27367908 80.53086266 452.75836658 81.18695641 C445.24077365 89.72967565 432.70680387 94.75561869 421.52536565 95.51026857 C420.2231369 95.51167742 418.92090814 95.51308627 417.57921791 95.51453781 C416.47714776 95.51979692 416.47714776 95.51979692 415.35281357 95.52516228 C412.90148015 95.53443426 410.4503865 95.52956391 407.99904346 95.52469444 C406.21948831 95.52843283 404.4399348 95.5330351 402.66038388 95.53842509 C397.77805789 95.55064731 392.89580046 95.55039553 388.01346266 95.54803634 C382.74471936 95.54762797 377.47599797 95.55866922 372.2072649 95.56815147 C361.88745204 95.58475838 351.56766203 95.59026089 341.24783693 95.59137623 C332.85807047 95.59232689 324.46831155 95.59643806 316.07854748 95.60277748 C292.28585019 95.62038934 268.49317094 95.62961648 244.70046709 95.62811653 C243.41802363 95.62803662 242.13558017 95.62795671 240.81427479 95.62787437 C239.53026325 95.62779261 238.24625172 95.62771085 236.92333075 95.62762661 C216.11684192 95.62681381 195.3104255 95.64595013 174.50395761 95.67415111 C153.1339719 95.70288703 131.76402149 95.716691 110.39401597 95.71496356 C98.39884584 95.71429988 86.40375161 95.71978228 74.4085989 95.74131966 C64.19505027 95.75954077 53.98161196 95.76387112 43.76805411 95.75030081 C38.55935039 95.74377581 33.35085824 95.74363718 28.14217472 95.76100731 C23.36821002 95.77676363 18.5946242 95.77384818 13.8206686 95.75643905 C12.09928639 95.75337479 10.37787572 95.75697975 8.65652708 95.7681592 C-7.53430271 95.86629624 -21.7631645 92.958253 -33.97600842 81.50726891 C-44.83626609 69.96687388 -47.60108205 57.59727851 -47.14007092 42.19086266 C-46.29306205 28.2738144 -38.47912199 18.34582989 -28.53850842 9.25726891 C-19.77887047 3.02819304 -10.73375942 0.01155867 0 0 Z " fill="#2C694E" transform="translate(46.72600841522217,63.74273109436035)"/>
</svg>
