<?xml version="1.0" encoding="UTF-8"?>
<svg version="1.1" xmlns="http://www.w3.org/2000/svg" width="512" height="512">
<path d="M0 0 C1.30806107 -0.00571014 2.61612213 -0.01142029 3.96382141 -0.01730347 C5.41685476 -0.01854882 6.86988822 -0.01967392 8.32292175 -0.02069092 C9.85055664 -0.02531938 11.37819037 -0.03034408 12.90582275 -0.03573608 C17.05880764 -0.04885954 21.21177637 -0.05530495 25.36477876 -0.05974674 C27.95940191 -0.0626776 30.55402065 -0.06678243 33.14864159 -0.07125092 C41.26660606 -0.08492579 49.38456044 -0.09459246 57.50253564 -0.09845281 C66.87354307 -0.10293348 76.24440464 -0.12048182 85.61536771 -0.1494534 C92.85877717 -0.17107001 100.10214558 -0.18115708 107.34558696 -0.18249393 C111.67178146 -0.18354198 115.99783885 -0.1894499 120.3239994 -0.20731354 C124.39435811 -0.22379386 128.46447661 -0.22594998 132.5348568 -0.21717453 C134.02718626 -0.21640413 135.51952864 -0.22074734 137.01182556 -0.23063278 C139.05235937 -0.24335509 141.09298971 -0.23568275 143.13354492 -0.22705078 C144.27451535 -0.22851734 145.41548578 -0.2299839 146.59103107 -0.2314949 C151.35120805 0.32768505 154.63393637 2.01713034 158.00724792 5.39044189 C162.60586505 12.61684023 162.02207381 20.21140041 161.95256042 28.51153564 C161.94973053 29.78900162 161.94690063 31.06646759 161.94398499 32.38264465 C161.934718 35.75777768 161.91678859 39.13263394 161.89457703 42.50769043 C161.87401655 45.96011945 161.86485153 49.41257805 161.85490417 52.86505127 C161.83460193 59.62366929 161.79544429 66.3818067 161.75724792 73.14044189 C176.60724792 73.14044189 191.45724792 73.14044189 206.75724792 73.14044189 C206.75724792 183.03044189 206.75724792 292.92044189 206.75724792 406.14044189 C117.65724792 406.14044189 28.55724792 406.14044189 -63.24275208 406.14044189 C-63.24275208 296.25044189 -63.24275208 186.36044189 -63.24275208 73.14044189 C-48.39275208 73.14044189 -33.54275208 73.14044189 -18.24275208 73.14044189 C-18.27755676 68.97419189 -18.31236145 64.80794189 -18.34822083 60.51544189 C-18.36753788 57.1761858 -18.38379771 53.83694566 -18.39800262 50.49766541 C-18.41379028 46.98215367 -18.43485869 43.46686187 -18.46907043 39.95147705 C-18.5081496 35.91027801 -18.52250688 31.86930892 -18.53572083 27.82794189 C-18.55894661 25.95404785 -18.55894661 25.95404785 -18.5826416 24.04229736 C-18.58537658 9.79219068 -18.58537658 9.79219068 -13.82592773 4.59259033 C-9.29464962 0.61521516 -5.85047532 0.01526811 0 0 Z M15.75724792 33.14044189 C15.75724792 46.01044189 15.75724792 58.88044189 15.75724792 72.14044189 C52.71724792 72.14044189 89.67724792 72.14044189 127.75724792 72.14044189 C127.75724792 59.27044189 127.75724792 46.40044189 127.75724792 33.14044189 C90.79724792 33.14044189 53.83724792 33.14044189 15.75724792 33.14044189 Z " fill="#2C694F" transform="translate(184.2427520751953,52.85955810546875)"/>
<path d="M0 0 C0 109.89 0 219.78 0 333 C-58.69677562 333 -58.69677562 333 -74.875 317.6875 C-82.90328037 309.12206525 -90.10492929 296.77243125 -90.13422108 284.71507263 C-90.14090784 283.43407905 -90.14090784 283.43407905 -90.14772969 282.1272068 C-90.14754533 281.19376127 -90.14736097 280.26031574 -90.14717102 279.29858398 C-90.15084771 278.30316275 -90.1545244 277.30774151 -90.1583125 276.28215599 C-90.16935138 272.93679672 -90.17319357 269.59146851 -90.17700195 266.24609375 C-90.18326654 263.85121054 -90.18991333 261.45632831 -90.19691467 259.06144714 C-90.21614359 251.86685214 -90.2267441 244.67225972 -90.23564246 237.47764683 C-90.24002913 234.08615083 -90.24539504 230.69465639 -90.25063133 227.30316162 C-90.26764358 216.02248458 -90.28213573 204.7418085 -90.28938007 193.46112061 C-90.29128985 190.53479003 -90.2932102 187.60845946 -90.29516602 184.68212891 C-90.29564976 183.95483802 -90.2961335 183.22754713 -90.2966319 182.47821712 C-90.30492466 170.7077515 -90.3302488 158.93738774 -90.36274669 147.16696656 C-90.39586954 135.07112721 -90.41383364 122.97533953 -90.41702431 110.87945461 C-90.41918483 104.09273905 -90.42786568 97.30617196 -90.45348549 90.51950073 C-90.47680036 84.13041292 -90.48098545 77.74159167 -90.47072411 71.35247231 C-90.47022944 69.01284205 -90.4765292 66.67319852 -90.49028015 64.33360863 C-90.61611867 41.646119 -90.61611867 41.646119 -86 32 C-85.62186315 31.18222076 -85.24372629 30.36444153 -84.85413074 29.5218811 C-78.37869687 16.1755137 -66.55442474 7.20308933 -53 2 C-36.00098659 -2.85686098 -17.67924081 0 0 0 Z " fill="#2C6A4E" transform="translate(90,126)"/>
<path d="M0 0 C58.01966639 0 58.01966639 0 74.7109375 15.68359375 C85.21716635 26.31532363 90.31706009 39.24319328 90.26742554 54.06217957 C90.27195665 55.06016408 90.27648776 56.05814859 90.28115618 57.08637506 C90.29379207 60.42245824 90.29218031 63.75837799 90.29052734 67.09448242 C90.29651315 69.48980926 90.30331882 71.88513417 90.31088257 74.28045654 C90.3267118 80.10756123 90.33299082 85.93461654 90.33410732 91.76174166 C90.33505934 96.50165698 90.3391773 101.241559 90.34550858 105.98147011 C90.36311426 119.43702632 90.37234869 132.89255069 90.37084763 146.34811851 C90.37076772 147.07282192 90.3706878 147.79752533 90.37060547 148.54418945 C90.37052371 149.26978384 90.37044195 149.99537822 90.37035771 150.74296031 C90.36954536 162.49384201 90.38867189 174.24459537 90.4168822 185.99543997 C90.44565814 198.07782124 90.45941986 210.16014001 90.45769465 222.24255639 C90.45703229 229.01915777 90.46245635 235.79562466 90.48405075 242.57219505 C90.50345712 248.94902372 90.50354085 255.325569 90.48901749 261.70240784 C90.4869312 264.03719816 90.49161945 266.37200633 90.5037384 268.70676613 C90.6134473 291.31471087 90.6134473 291.31471087 86 301 C85.47019531 302.14855469 84.94039063 303.29710937 84.39453125 304.48046875 C74.97270966 320.60225235 62.8699736 328.12637084 45 333 C30.15 333 15.3 333 0 333 C0 223.11 0 113.22 0 0 Z " fill="#2C6A4E" transform="translate(422,126)"/>
</svg>
