<?xml version="1.0" encoding="UTF-8"?>
<svg version="1.1" xmlns="http://www.w3.org/2000/svg" width="512" height="512">
<path d="M0 0 C28.22557961 27.59030555 42.47970574 67.34685328 47.53076172 105.84326172 C47.7682312 107.64802979 47.7682312 107.64802979 48.01049805 109.48925781 C48.29624624 111.78313261 48.55576334 114.08049557 48.78344727 116.38085938 C49.62396671 123.36043028 51.42852093 127.78790187 55.81835938 133.30834961 C62.76935493 142.44465816 62.87388204 154.56242193 61.51513672 165.53857422 C58.82090041 176.13208208 52.42858388 185.23348317 43.51513672 191.53857422 C36.7953066 195.50523122 30.43613591 198.00451535 22.51513672 197.53857422 C20.62002336 195.64346086 20.97806343 192.2666926 20.70263672 189.72607422 C18.11595093 168.87911948 7.84905871 152.41822442 -8.48486328 139.60107422 C-23.64340268 128.78472288 -41.74217151 124.69378352 -60.16845703 126.99951172 C-79.92040934 130.49361358 -96.08896343 140.23429763 -108.45361328 156.05810547 C-117.34898509 169.06953748 -119.89818157 183.01848392 -122.48486328 198.53857422 C-168.68486328 198.53857422 -214.88486328 198.53857422 -262.48486328 198.53857422 C-263.47486328 190.61857422 -263.47486328 190.61857422 -264.48486328 182.53857422 C-269.90656814 163.33024843 -279.77766189 146.67926224 -297.48486328 136.53857422 C-316.2314344 126.66210354 -334.91133186 123.92569283 -355.48486328 129.53857422 C-364.39888169 132.63176673 -372.06830223 136.7313935 -379.48486328 142.53857422 C-380.38398438 143.17472656 -380.38398438 143.17472656 -381.30126953 143.82373047 C-396.1732282 155.10709586 -403.10343056 174.49330253 -405.67236328 192.22607422 C-405.95023609 194.32932284 -406.22361202 196.43319638 -406.48486328 198.53857422 C-419.41049286 198.13338207 -428.93433335 195.5387948 -438.48486328 186.53857422 C-448.25929066 175.97214778 -451.09712844 165.32335224 -450.81689453 151.22998047 C-450.37702019 142.2677671 -447.52284837 135.25153964 -441.04736328 129.03857422 C-435.04861052 122.99008056 -433.86146178 115.50035586 -431.81298828 107.49951172 C-430.42706895 102.11451212 -428.65610195 97.14361761 -425.48486328 92.53857422 C-425.1193335 91.98927246 -424.75380371 91.4399707 -424.37719727 90.87402344 C-420.10342914 85.12725385 -415.22140948 83.50706293 -408.54736328 81.41357422 C-406.27935062 80.64716652 -404.013821 79.87338173 -401.75048828 79.09326172 C-399.96481445 78.47789551 -399.96481445 78.47789551 -398.14306641 77.85009766 C-391.93984088 75.6261436 -385.86578828 73.1021391 -379.79736328 70.53857422 C-379.16987183 70.27433655 -378.54238037 70.01009888 -377.89587402 69.737854 C-364.42454633 64.05107137 -351.08922112 58.05109203 -337.77319336 52.01123047 C-336.98404541 51.65458313 -336.19489746 51.29793579 -335.38183594 50.93048096 C-333.89997398 50.26048259 -332.41934381 49.58775058 -330.94018555 48.9118042 C-325.80693436 46.5934962 -325.80693436 46.5934962 -323.34342957 46.17340088 C-322.73010269 45.96390808 -322.11677582 45.75441528 -321.48486328 45.53857422 C-320.82334021 43.51918801 -320.17430439 41.49517399 -319.57470703 39.45654297 C-308.70751478 10.3605121 -281.95831744 -11.69950509 -254.66064453 -24.61767578 C-184.87266859 -56.20988466 -58.32872166 -55.21502587 0 0 Z " fill="#2C694E" transform="translate(450.48486328125,149.46142578125)"/>
<path d="M0 0 C12.03399293 11.51640184 18.54286407 26.65110468 19 43.1875 C18.6761394 59.41863122 12.79698056 72.8055095 1.4765625 84.24609375 C-9.22448923 94.33265932 -22.98810974 99.53937202 -37.625 100.1875 C-54.18261043 99.65718508 -69.01171422 92.90689023 -80.3125 80.875 C-90.72001267 69.11198347 -95.02063094 54.87183989 -94.58984375 39.27734375 C-93.41709612 24.89053828 -87.07180369 10.64023759 -76.3125 0.875 C-53.94730431 -17.50173579 -22.9098703 -18.30967766 0 0 Z M-59.3125 21.875 C-65.13727583 28.76963262 -68.78458051 36.73380472 -68.3125 45.875 C-67.26976556 53.15122387 -63.58640768 60.74363036 -58.3125 65.875 C-49.19076136 72.10895204 -42.39859519 73.80521258 -31.3125 72.875 C-22.12078167 70.48416221 -16.79541591 66.00607295 -11.64453125 58.19140625 C-7.51756579 51.01460122 -7.40874589 43.93680655 -8.3125 35.875 C-11.39541116 26.2203316 -16.64240637 20.24109304 -25.4375 15.5625 C-37.12771349 10.15493483 -50.21405707 12.91352288 -59.3125 21.875 Z " fill="#2C694E" transform="translate(438.3125,304.125)"/>
<path d="M0 0 C2.50875572 2.20455031 4.88802036 4.47967955 7.234375 6.85546875 C7.80929688 7.40847656 8.38421875 7.96148437 8.9765625 8.53125 C17.8766806 17.82334221 22.25531069 32.22047996 22.328125 44.875 C21.9337507 61.27667557 15.87243866 74.61027739 4.71875 86.53125 C-6.60702647 97.12690566 -21.21545238 102.19757878 -36.60058594 101.88500977 C-50.94344307 101.23789905 -62.83199636 96.05108542 -73.453125 86.41796875 C-74.5978125 85.14953125 -74.5978125 85.14953125 -75.765625 83.85546875 C-76.57773438 83.04916016 -76.57773438 83.04916016 -77.40625 82.2265625 C-87.89164705 71.30807296 -91.21712992 57.59438091 -91.20043945 42.93408203 C-90.74647896 26.98810516 -84.02760274 13.69422312 -72.703125 2.54296875 C-52.04789249 -14.52477601 -21.63544334 -16.77663615 0 0 Z M-58.765625 26.85546875 C-63.66226725 34.67600529 -65.95701155 42.06784449 -64.33984375 51.28125 C-62.06764335 60.24459269 -57.39519267 66.52420098 -49.515625 71.35546875 C-41.93853237 75.59111059 -33.61037783 76.29071871 -25.125 74.20703125 C-17.32809851 71.01738973 -10.83517499 65.21196296 -6.765625 57.85546875 C-3.70026346 49.91440534 -3.45616677 41.4381687 -6.453125 33.41796875 C-10.83972635 24.02244544 -17.90207088 19.04187876 -27.453125 15.48046875 C-39.59327019 13.18987532 -50.85324233 17.37355413 -58.765625 26.85546875 Z " fill="#2C694E" transform="translate(150.765625,302.14453125)"/>
</svg>
