<?xml version="1.0" encoding="UTF-8"?>
<svg version="1.1" xmlns="http://www.w3.org/2000/svg" width="512" height="512">
<path d="M0 0 C144.54 0 289.08 0 438 0 C439.1767104 20.00407681 439.1767104 20.00407681 438.375 27.875 C438.28436279 28.7942627 438.19372559 29.71352539 438.1003418 30.66064453 C435.28653777 56.00885591 424.80456752 79.83795718 408 99 C407.34515625 99.77601563 406.6903125 100.55203125 406.015625 101.3515625 C403.1875443 104.67516161 400.52298603 107.41016835 397 110 C398.11971191 110.0093457 399.23942383 110.01869141 400.39306641 110.02832031 C404.56436316 110.06832161 408.73493022 110.13410805 412.90576172 110.20751953 C414.70774939 110.23567053 416.50985919 110.25691422 418.31201172 110.27099609 C420.90916198 110.29250755 423.50485295 110.33919757 426.1015625 110.390625 C426.9017984 110.39185364 427.7020343 110.39308228 428.52651978 110.39434814 C433.79852818 110.53107303 436.79316397 111.55624235 441 115 C444.42917072 118.69989473 445.29969749 121.5792349 445.5 126.5 C445.29279901 131.42603649 444.48814876 134.33297182 441 138 C435.13109395 142.17003497 430.65680377 142.56068506 423.56665039 142.45410156 C422.5415033 142.45468567 421.5163562 142.45526978 420.46014404 142.45587158 C417.0889642 142.45309626 413.71868066 142.42202928 410.34765625 142.390625 C408.00353987 142.38316068 405.65941722 142.37746865 403.31529236 142.37347412 C397.15846397 142.35823303 391.0020156 142.31896378 384.84533691 142.2746582 C378.55775085 142.23367294 372.27010314 142.21545612 365.98242188 142.1953125 C353.65478135 142.15246852 341.32742233 142.08423521 329 142 C329.06856201 141.33178223 329.13712402 140.66356445 329.20776367 139.97509766 C329.29775635 139.08870605 329.38774902 138.20231445 329.48046875 137.2890625 C329.56965576 136.41459473 329.65884277 135.54012695 329.75073242 134.63916016 C331.19828352 119.31298254 327.39254953 104.6202468 317.96484375 92.3515625 C307.23587279 79.74927915 293.15017188 72.31629506 276.6484375 70.78125 C261.26244545 70.17984314 246.96443779 75.90773391 235.31640625 85.7421875 C224.33672397 96.44413751 218.02347188 110.15044674 217.8215332 125.39599609 C217.79929742 131.03667272 218.00843944 136.42797367 219 142 C184.08579989 142.09155292 149.17162719 142.16203738 114.25733298 142.20426132 C110.13550369 142.20926415 106.01367464 142.21444144 101.8918457 142.21972656 C101.07126281 142.2207758 100.25067992 142.22182505 99.40523089 142.22290608 C86.11797796 142.24031193 72.83079424 142.2718506 59.54358237 142.30861118 C45.90995328 142.34601563 32.27636044 142.3682348 18.64268214 142.37635398 C10.22975915 142.38184279 1.8170318 142.39917946 -6.59583097 142.43166587 C-12.3646367 142.45280763 -18.13334128 142.45920082 -23.90218294 142.45400551 C-27.23077346 142.45144311 -30.55874643 142.45755963 -33.88732338 142.4768219 C-37.49787428 142.49669369 -41.10758497 142.49194836 -44.71815491 142.48101807 C-45.7677758 142.49266943 -46.81739669 142.5043208 -47.89882427 142.51632524 C-54.15937501 142.46502189 -57.89136436 141.69223741 -63 138 C-66.48814876 134.33297182 -67.29279901 131.42603649 -67.5 126.5 C-67.29969749 121.5792349 -66.42917072 118.69989473 -63 115 C-57.79712663 110.65125705 -53.8073945 110.4176464 -47.32275391 110.45410156 C-46.36602783 110.44376389 -45.40930176 110.43342621 -44.42358398 110.42277527 C-41.27440444 110.39337569 -38.12586842 110.39184867 -34.9765625 110.390625 C-32.78794125 110.37564148 -30.59933129 110.35891397 -28.41073608 110.34051514 C-22.66013059 110.29684904 -16.90967762 110.27684401 -11.15893555 110.26177979 C-5.2868549 110.24220618 0.5850611 110.20023638 6.45703125 110.16015625 C17.97130337 110.084862 29.48553862 110.03456563 41 110 C40.1224707 109.13987305 39.24494141 108.27974609 38.34082031 107.39355469 C37.16971834 106.2365341 35.99883137 105.07929586 34.828125 103.921875 C34.2520752 103.35839355 33.67602539 102.79491211 33.08251953 102.21435547 C18.09063216 87.34969769 8.60071582 68.16724423 3 48 C2.6596875 46.82308594 2.319375 45.64617187 1.96875 44.43359375 C-1.5310536 29.672848 0 15.43087313 0 0 Z " fill="#2C694F" transform="translate(67,233)"/>
<path d="M0 0 C2.09035099 0.00373664 4.18070375 0.00658053 6.27105713 0.00857544 C11.73556473 0.01616062 17.19996364 0.03576443 22.66442871 0.0579834 C29.24086258 0.0821782 35.81733306 0.09124719 42.39379883 0.10289001 C52.35114948 0.12219237 62.30826232 0.16055057 72.265625 0.1953125 C72.265625 26.5953125 72.265625 52.9953125 72.265625 80.1953125 C7.255625 80.1953125 -57.754375 80.1953125 -124.734375 80.1953125 C-114.37100048 49.10518895 -90.00659013 25.84430967 -61.25439453 11.33349609 C-52.46226753 7.07213745 -43.25201033 4.32745919 -33.734375 2.1953125 C-32.97261459 2.01959213 -32.21085419 1.84387177 -31.42601013 1.66282654 C-21.0200508 -0.40473955 -10.55836481 -0.05576754 0 0 Z " fill="#2D694E" transform="translate(199.734375,123.8046875)"/>
<path d="M0 0 C22.40745482 -0.16043524 22.40745482 -0.16043524 32.08203125 -0.1953125 C38.64059668 -0.21906991 45.19893526 -0.24693479 51.75732422 -0.30175781 C57.05475064 -0.34575459 62.35193324 -0.36924862 67.6495285 -0.37950897 C69.65378397 -0.38680508 71.65802865 -0.40104686 73.66217804 -0.42292023 C109.91343015 -0.80222764 141.72422927 10.97025928 168.1171875 36.12109375 C180.27375248 48.05404298 189.08958352 62.51634807 196 78 C196 78.66 196 79.32 196 80 C131.32 80 66.64 80 0 80 C0 53.6 0 27.2 0 0 Z " fill="#2C694E" transform="translate(301,124)"/>
<path d="M0 0 C5.88994044 4.80714331 9.22506361 10.86736927 10.6875 18.3125 C11.4303471 27.37523462 9.4995895 34.62968929 3.625 41.6875 C-2.77561148 48.24271562 -8.78892019 50.45286471 -17.875 50.8125 C-25.44642031 50.55418095 -32.21914829 48.24560745 -37.89453125 43.03125 C-43.71121378 35.98072572 -46.25081186 28.50813819 -45.76171875 19.421875 C-44.53143585 10.90617768 -41.19817975 4.55342224 -34.3125 -0.6875 C-23.35893277 -7.51786131 -10.73493755 -7.43343789 0 0 Z " fill="#2C694E" transform="translate(358.3125,337.6875)"/>
</svg>
