<?xml version="1.0" encoding="UTF-8"?>
<svg version="1.1" xmlns="http://www.w3.org/2000/svg" width="512" height="512">
<path d="M0 0 C2.32742633 1.8564728 4.55140599 3.80570165 6.75 5.8125 C7.50978149 6.50388062 7.50978149 6.50388062 8.28491211 7.20922852 C16.42191606 14.93366679 22.33514849 23.79375055 27.625 33.625 C28.84571276 35.85002569 30.06842058 38.07395783 31.29296875 40.296875 C31.90833496 41.41642578 32.52370117 42.53597656 33.15771484 43.68945312 C36.00174746 48.80011867 38.96749843 53.83684474 41.9375 58.875 C47.6227621 68.55001788 53.10792857 78.32560636 58.53710938 88.14624023 C63.72738621 97.53037393 69.02143047 106.85046637 74.36328125 116.14892578 C77.56164526 121.72030032 80.74944867 127.29772033 83.9375 132.875 C84.27933319 133.47287323 84.62116638 134.07074646 84.97335815 134.68673706 C90.03232415 143.53623287 95.06142354 152.40220064 100.06835938 161.28125 C104.66608734 169.4274085 109.31207595 177.54569039 113.96136475 185.66247559 C118.73357289 193.99681964 123.45059858 202.36031899 128.125 210.75 C132.63764737 218.84727008 137.24138839 226.88279437 141.9375 234.875 C147.57961427 244.47718607 153.01402469 254.18220327 158.39428711 263.93310547 C162.49727889 271.34917419 166.70295871 278.69484775 171 286 C178.01451273 297.9401485 184.80271246 309.99476617 191.43945312 322.1484375 C192.37646293 323.86062063 193.3187599 325.56994858 194.27148438 327.2734375 C205.02724967 346.5063679 207.52549039 369.60235969 202.0625 391 C195.40098214 414.16452732 180.35548854 432.47096772 159.40966797 444.24975586 C144.80507042 452.08117789 130.41376256 454.30670442 114.04867554 454.26742554 C112.55811765 454.27116858 111.06756171 454.2757727 109.57700884 454.28115618 C105.50728959 454.29332087 101.43765294 454.29313348 97.36791968 454.29076743 C92.96827937 454.2903576 88.56866496 454.30141426 84.16903687 454.31088257 C75.55880373 454.32745792 66.94859798 454.33299055 58.33835022 454.33410732 C51.33503578 454.3350595 44.33173033 454.33917822 37.32841873 454.34550858 C17.44733479 454.36311194 -2.43372762 454.37234892 -22.31481941 454.37084763 C-23.92072941 454.37072776 -23.92072941 454.37072776 -25.55908203 454.37060547 C-26.63100478 454.37052371 -27.70292754 454.37044195 -28.8073328 454.37035771 C-46.17074276 454.36954518 -63.5340659 454.38867676 -80.89745076 454.4168822 C-98.75095318 454.44565359 -116.60441332 454.45942014 -134.45793951 454.45769465 C-144.47129128 454.45703219 -154.48455203 454.46246102 -164.49788284 454.48405075 C-173.02482432 454.50231867 -181.55163353 454.50656404 -190.07858618 454.4930319 C-194.42303294 454.48653032 -198.76722636 454.4862825 -203.11164856 454.5037384 C-207.10053132 454.51959985 -211.08896263 454.51647429 -215.07783525 454.49917014 C-216.50916089 454.49612868 -217.94052134 454.49962281 -219.37180586 454.51089029 C-243.98261893 454.6915655 -266.56108716 445.78664047 -284.40625 428.78125 C-302.25283858 409.64454658 -309.09626881 387.08866329 -308.375 361.2265625 C-307.69069455 347.01439367 -302.81629585 335.3262189 -296 323 C-295.50177734 322.0910498 -295.00355469 321.18209961 -294.49023438 320.24560547 C-287.63257608 307.76425674 -280.52857855 295.43293343 -273.31738281 283.15332031 C-268.32643787 274.62631444 -263.52517445 266.00095338 -258.74853516 257.35253906 C-253.88524897 248.55923596 -248.92535687 239.82574559 -243.92492676 231.11010742 C-239.18818885 222.85273596 -234.50726952 214.56646701 -229.875 206.25 C-224.80398863 197.15053481 -219.59702508 188.14032791 -214.31982422 179.15917969 C-209.2732813 170.53888053 -204.43118811 161.81232984 -199.60571289 153.06689453 C-195.50272794 145.65083815 -191.2974353 138.30491225 -187 131 C-181.3343635 121.36681523 -175.86953085 111.63370614 -170.46264648 101.85327148 C-165.27397693 92.47217309 -159.98144389 83.15523141 -154.64111328 73.85986328 C-152.11259899 69.45358295 -149.59341838 65.04198026 -147.07421875 60.63037109 C-145.69730536 58.2193938 -144.31828778 55.80963928 -142.9375 53.40087891 C-139.80268668 47.92921156 -136.6845016 42.45010805 -133.62890625 36.93359375 C-128.42201968 27.57014027 -123.34486261 18.87668241 -116 11 C-115.45472656 10.37609375 -114.90945312 9.7521875 -114.34765625 9.109375 C-85.25143671 -22.47674108 -33.99874844 -23.61383288 0 0 Z " fill="#2C694E" transform="translate(308,37)"/>
</svg>
