<?xml version="1.0" encoding="UTF-8"?>
<svg version="1.1" xmlns="http://www.w3.org/2000/svg" width="512" height="512">
<path d="M0 0 C1.79580726 -0.00424107 1.79580726 -0.00424107 3.62789345 -0.00856781 C9.93951249 -0.02342108 16.2511094 -0.03274299 22.56274414 -0.03710938 C29.05995376 -0.04263491 35.55695815 -0.06678751 42.0541029 -0.09508133 C47.0804556 -0.11370365 52.10675819 -0.11891267 57.13314247 -0.12044525 C59.52966775 -0.12346322 61.92619233 -0.1314627 64.32268333 -0.14463043 C67.66474712 -0.16171396 71.00629876 -0.15980708 74.34838867 -0.15332031 C75.32770859 -0.1625351 76.3070285 -0.17174988 77.31602478 -0.1812439 C83.28148614 -0.14503442 87.72393034 0.65012179 93.14453125 3.203125 C97.13315831 7.39629704 98.2686862 9.96097096 98.27875233 15.64866257 C98.28321017 16.81239859 98.28766801 17.97613462 98.29226094 19.17513537 C98.2919844 21.10962287 98.2919844 21.10962287 98.29170227 23.08319092 C98.29500004 24.45832525 98.29872542 25.83345862 98.30284375 27.20859075 C98.31288179 31.00061548 98.31658343 34.79262439 98.31923306 38.58466053 C98.32313078 42.6693114 98.33270948 46.75394968 98.34144592 50.83859253 C98.36122545 60.70957953 98.37127844 70.58056757 98.38017371 80.45156944 C98.38455419 85.09705985 98.38992162 89.74254913 98.39516258 94.38803864 C98.41217637 109.82572061 98.42667129 125.26340186 98.43391132 140.70109177 C98.4358213 144.70893098 98.43774162 148.71677018 98.43969727 152.72460938 C98.44018101 153.72076984 98.44066475 154.71693031 98.44116315 155.74327746 C98.4494662 171.88604894 98.47480708 188.02874638 98.50727794 204.17148551 C98.54032485 220.73530107 98.55835794 237.29907897 98.56155556 253.86292768 C98.56372286 263.16681078 98.57250359 272.47058592 98.59801674 281.77443695 C98.61969142 289.69694506 98.62779014 297.619319 98.61804996 305.5418534 C98.61349582 309.58514754 98.61545572 313.62816465 98.6348114 317.67142105 C98.652377 321.37265964 98.65149966 325.07341776 98.63591411 328.77466097 C98.63239714 330.74850919 98.64861356 332.72236205 98.66551858 334.696141 C98.58677405 345.47115419 98.58677405 345.47115419 94.14453125 350.203125 C86.66373077 355.71741496 77.9626463 354.73818775 69.08007812 354.65722656 C67.34493028 354.6560972 65.60978053 354.65673368 63.87463379 354.65899658 C59.18087344 354.66014118 54.48752448 354.63667305 49.79385948 354.60870075 C44.88249184 354.58364473 39.97111408 354.58134179 35.05969238 354.57659912 C25.76671833 354.56418169 16.47393318 354.53137674 7.18104219 354.49120116 C-3.40174478 354.4464451 -13.98454092 354.42448677 -24.56739902 354.40441942 C-46.33019424 354.36264304 -68.09281958 354.29231494 -89.85546875 354.203125 C-90.0555957 355.33596924 -90.0555957 355.33596924 -90.25976562 356.49169922 C-94.22223629 374.52743659 -112.06933872 392.7016261 -127.11328125 402.5546875 C-137.6985479 408.91791047 -147.94639161 413.83573077 -159.85546875 417.203125 C-161.07363281 417.55503906 -161.07363281 417.55503906 -162.31640625 417.9140625 C-188.37555488 424.22311954 -217.08340174 418.85170901 -239.85546875 405.203125 C-244.0545528 402.41857339 -247.98339963 399.4243335 -251.85546875 396.203125 C-252.73976562 395.4709375 -253.6240625 394.73875 -254.53515625 393.984375 C-265.49013389 384.52779856 -274.14411556 372.76154442 -279.97167969 359.49243164 C-280.32615173 358.68753799 -280.68062378 357.88264435 -281.0458374 357.05335999 C-281.31301575 356.44278244 -281.58019409 355.8322049 -281.85546875 355.203125 C-282.48384706 355.20165844 -283.11222538 355.20019188 -283.75964546 355.19868088 C-299.05865288 355.16160826 -314.3574053 355.10258776 -329.65622139 355.01922226 C-337.05467206 354.97943475 -344.45301642 354.94704087 -351.8515625 354.93212891 C-358.30112501 354.9191108 -364.75045356 354.8921424 -371.1998843 354.84851193 C-374.6139885 354.82590028 -378.02780417 354.81021411 -381.4419899 354.81124115 C-385.25611832 354.8088798 -389.06933002 354.7818643 -392.88330078 354.74902344 C-394.57615456 354.75656898 -394.57615456 354.75656898 -396.3032074 354.76426697 C-402.27448938 354.68462912 -406.28498307 354.47220531 -410.85546875 350.203125 C-414.04668126 346.23227999 -414.23813725 343.04666405 -414.25952148 338.02954102 C-414.26638474 337.32643799 -414.27324799 336.62333496 -414.28031921 335.89892578 C-414.29855558 333.58475298 -414.29475443 331.27126019 -414.2890625 328.95703125 C-414.29362594 327.34187094 -414.298932 325.72671257 -414.3049469 324.11155701 C-414.31387184 320.72980857 -414.31146213 317.34829637 -414.30151367 313.96655273 C-414.29002638 309.64102942 -414.31023428 305.31632277 -414.33943081 300.99090672 C-414.35781121 297.6562129 -414.3574967 294.32171412 -414.35179329 290.98698235 C-414.35164029 289.39263705 -414.35766703 287.79827835 -414.37008476 286.2039814 C-414.38502816 283.97084023 -414.37429526 281.73919899 -414.35717773 279.50610352 C-414.35701157 278.23767105 -414.3568454 276.96923859 -414.35667419 275.66236877 C-413.75368675 271.50064111 -412.54006496 269.41721681 -409.85546875 266.203125 C-408.96058746 265.75630371 -408.06570618 265.30948242 -407.14370728 264.84912109 C-404.430737 263.30455996 -404.430737 263.30455996 -404.23641968 259.53759766 C-404.21329046 257.98096423 -404.21783246 256.42377862 -404.24365234 254.8671875 C-404.23798752 254.01635086 -404.23232269 253.16551422 -404.22648621 252.28889465 C-404.21295359 249.46819375 -404.2339614 246.64877053 -404.25390625 243.828125 C-404.24840574 241.86335369 -404.24028084 239.89858812 -404.22964478 237.93383789 C-404.20670906 232.74952172 -404.21099143 227.56562614 -404.22344971 222.38128662 C-404.24171231 214.11214026 -404.23161874 205.84324549 -404.19758987 197.57415771 C-404.19152412 194.69654156 -404.20470522 191.81946808 -404.21957397 188.94189453 C-404.23050262 172.0364913 -401.38832457 158.18430956 -389.3671875 145.52734375 C-375.79187146 132.96542611 -361.03093399 131.60150679 -343.43359375 131.59375 C-341.4777491 131.57874431 -339.521917 131.56201221 -337.56610107 131.54364014 C-332.45674001 131.50022255 -327.3475498 131.48002465 -322.23803711 131.46490479 C-317.00885013 131.44524083 -311.77984521 131.40328165 -306.55078125 131.36328125 C-296.31906693 131.28825678 -286.0873939 131.2377978 -275.85546875 131.203125 C-276.97661025 130.07606005 -278.09859901 128.94983786 -279.22094727 127.82397461 C-279.84566422 127.19671982 -280.47038116 126.56946503 -281.11402893 125.92320251 C-282.94193118 124.11772321 -284.82825037 122.4208035 -286.79296875 120.765625 C-289.60123222 118.34694721 -292.25517468 115.84412817 -294.85546875 113.203125 C-297.4355609 110.58271891 -300.06650482 108.09989088 -302.85546875 105.703125 C-306.36688523 102.68550147 -309.60854277 99.46953419 -312.85546875 96.171875 C-314.79437877 94.26326045 -316.79246426 92.47601948 -318.85546875 90.703125 C-322.36688523 87.68550147 -325.60854277 84.46953419 -328.85546875 81.171875 C-330.79437877 79.26326045 -332.79246426 77.47601948 -334.85546875 75.703125 C-337.64443268 73.30635912 -340.2753766 70.82353109 -342.85546875 68.203125 C-346.04181895 64.97329634 -349.33721977 61.94764766 -352.78515625 59 C-354.25285314 57.72614986 -355.69319757 56.42047178 -357.11328125 55.09375 C-364.23867094 48.47559144 -369.86306967 45.56844537 -379.734375 45.765625 C-384.05091907 46.37069751 -387.39961304 48.12568924 -391.2578125 50.07421875 C-395.89255838 52.08841659 -400.05840244 52.14471168 -404.828125 50.5390625 C-408.76126579 48.6184205 -411.2557329 46.11254769 -413.1953125 42.19140625 C-414.93214088 36.96036693 -414.38084688 32.61209362 -412.48046875 27.515625 C-407.78232322 20.44385194 -398.5162811 17.10415732 -390.67578125 14.8984375 C-375.10823316 12.06508008 -359.70352797 13.77606029 -346.23828125 22.45703125 C-341.80060379 25.70890309 -337.84726558 29.42694348 -333.85546875 33.203125 C-332.87143419 34.11115824 -331.88569226 35.01734395 -330.8984375 35.921875 C-322.83924439 43.30904841 -314.87250034 50.7953054 -306.90380859 58.27978516 C-303.55632301 61.42299033 -300.20576418 64.56291545 -296.85546875 67.703125 C-295.52212018 68.95310875 -294.18878686 70.20310876 -292.85546875 71.453125 C-292.19546875 72.071875 -291.53546875 72.690625 -290.85546875 73.328125 C-284.85546875 78.953125 -284.85546875 78.953125 -282.85327148 80.83032227 C-281.52744528 82.07319319 -280.20143781 83.31587079 -278.87524414 84.55834961 C-275.42549697 87.7908166 -271.97949685 91.02715204 -268.5390625 94.26953125 C-267.82814453 94.93855469 -267.11722656 95.60757813 -266.38476562 96.296875 C-265.03722585 97.56514772 -263.69078471 98.83458926 -262.34570312 100.10546875 C-258.28012364 103.92889773 -254.11734447 107.59945402 -249.85546875 111.203125 C-246.00638615 109.37126406 -242.80358506 106.97202718 -239.48046875 104.328125 C-238.86905029 103.8448877 -238.25763184 103.36165039 -237.62768555 102.86376953 C-232.01994405 98.3985184 -226.58874455 93.739535 -221.16796875 89.05078125 C-216.47869414 85.00181463 -211.66762498 81.10448564 -206.85546875 77.203125 C-205.14629914 75.8083158 -203.43798864 74.4124533 -201.73046875 73.015625 C-200.82296875 72.27570313 -199.91546875 71.53578125 -198.98046875 70.7734375 C-196.63083468 68.84975149 -194.3034466 66.90108812 -191.98046875 64.9453125 C-153.93925986 33.03476673 -110.15446747 10.87103396 -60.85546875 3.203125 C-60.09540527 3.08146973 -59.3353418 2.95981445 -58.55224609 2.83447266 C-39.21196633 -0.17757459 -19.51806396 0.03147278 0 0 Z M-64.54296875 35.453125 C-65.57711914 35.67000977 -66.61126953 35.88689453 -67.67675781 36.11035156 C-81.37831556 39.07319226 -94.49639136 43.00311001 -107.41796875 48.453125 C-108.18334961 48.77506836 -108.94873047 49.09701172 -109.73730469 49.42871094 C-119.0617664 53.51704018 -127.80251851 58.43841435 -136.85546875 63.203125 C-136.85546875 85.973125 -136.85546875 108.743125 -136.85546875 132.203125 C-69.20546875 132.203125 -1.55546875 132.203125 68.14453125 132.203125 C68.14453125 98.873125 68.14453125 65.543125 68.14453125 31.203125 C44.84859375 31.14125 44.84859375 31.14125 21.08203125 31.078125 C16.22734131 31.05991699 11.37265137 31.04170898 6.37084961 31.02294922 C1.91517016 31.01624928 1.91517016 31.01624928 -2.54051208 31.01223755 C-4.48367741 31.00922062 -6.42683965 31.00230385 -8.36997986 30.99197388 C-27.15915559 30.89732 -46.11349098 31.47864482 -64.54296875 35.453125 Z M-173.79296875 90.640625 C-178.99005412 95.36373618 -184.39981496 99.78374064 -189.85546875 104.203125 C-192.96364125 106.73924121 -196.06737203 109.28074037 -199.16992188 111.82373047 C-200.41762282 112.8448067 -201.66650188 113.86444372 -202.91601562 114.88330078 C-205.18957013 116.73738945 -207.46014556 118.59508165 -209.73046875 120.453125 C-210.45637207 121.04375732 -211.18227539 121.63438965 -211.93017578 122.24291992 C-212.62481934 122.81244385 -213.31946289 123.38196777 -214.03515625 123.96875 C-214.65116699 124.47180664 -215.26717773 124.97486328 -215.90185547 125.49316406 C-218.32560286 127.61462454 -220.57784434 129.92550059 -222.85546875 132.203125 C-204.70546875 132.203125 -186.55546875 132.203125 -167.85546875 132.203125 C-167.85546875 117.353125 -167.85546875 102.503125 -167.85546875 87.203125 C-170.77946906 87.203125 -171.66988751 88.67111202 -173.79296875 90.640625 Z M-295.85546875 163.203125 C-295.86064105 163.93567348 -295.86581335 164.66822195 -295.87114239 165.42296886 C-295.87802987 166.38603608 -295.88491735 167.3491033 -295.89201355 168.34135437 C-295.89879718 169.2951382 -295.90558081 170.24892202 -295.91257 171.23160839 C-295.94634863 175.5665828 -296.00519219 179.90113294 -296.06298828 184.23583984 C-296.0911807 186.61988163 -296.11240378 189.00401658 -296.12646484 191.38818359 C-296.14791744 194.81916952 -296.19458239 198.24903724 -296.24609375 201.6796875 C-296.24732239 202.74240875 -296.24855103 203.80513 -296.24981689 204.90005493 C-296.3649326 210.74138333 -296.58479866 214.81165248 -300.85546875 219.203125 C-307.43242648 223.50364071 -315.14919917 222.68142006 -322.7578125 222.71484375 C-324.20513923 222.73170862 -325.65245147 222.74986128 -327.0997467 222.76924133 C-330.8890022 222.81655175 -334.67819894 222.84648307 -338.46765137 222.87268066 C-343.02505106 222.90784985 -347.58222524 222.9648081 -352.13944244 223.01807404 C-359.0447551 223.09636556 -365.94977709 223.14713812 -372.85546875 223.203125 C-372.85546875 236.403125 -372.85546875 249.603125 -372.85546875 263.203125 C-360.08572475 263.45188173 -347.31759554 263.65357853 -334.54597473 263.77305889 C-328.61518174 263.83041128 -322.68613533 263.90816331 -316.75634766 264.03295898 C-311.03089314 264.15269691 -305.30711548 264.21829442 -299.58050537 264.24677467 C-297.39863686 264.26706272 -295.21685779 264.30668477 -293.03570557 264.36615562 C-281.21720907 265.14727654 -281.21720907 265.14727654 -270.77745056 260.7858429 C-268.73253939 257.99596174 -267.27269152 255.34714552 -265.85546875 252.203125 C-248.75833091 231.26393371 -225.24958473 218.23441451 -198.41796875 214.453125 C-196.89920604 214.33806722 -195.37751367 214.26020168 -193.85546875 214.203125 C-192.63859375 214.1515625 -191.42171875 214.1 -190.16796875 214.046875 C-161.64049766 213.23161268 -135.3443307 222.74865624 -114.1640625 241.93359375 C-108.28912471 247.53687799 -102.64054402 254.2892312 -98.6315794 261.3625145 C-96.93027313 263.49109939 -96.93027313 263.49109939 -93.90945911 263.69531631 C-92.08845707 263.68978556 -92.08845707 263.68978556 -90.23066711 263.68414307 C-89.5543177 263.68756077 -88.87796829 263.69097847 -88.18112344 263.69449973 C-85.90979016 263.70110004 -83.63963297 263.67906909 -81.3684082 263.65722656 C-79.74237089 263.65609854 -78.11633154 263.65673106 -76.49029541 263.65899658 C-72.07101482 263.66014643 -67.6521666 263.63659353 -63.23298669 263.60870075 C-58.61654353 263.58373209 -54.00009096 263.58134869 -49.3835907 263.57659912 C-40.63939246 263.56415598 -31.89539374 263.53131631 -23.15128344 263.49120116 C-11.33695147 263.43817487 0.47743489 263.4165488 12.29185581 263.39319229 C30.90956381 263.35555581 49.52685071 263.275874 68.14453125 263.203125 C68.14453125 229.873125 68.14453125 196.543125 68.14453125 162.203125 C26.39438972 162.18101734 -15.35574622 162.16257728 -57.10589194 162.15205967 C-62.05171443 162.15080919 -66.99753691 162.14951484 -71.94335938 162.14819336 C-72.92784955 162.14793105 -73.91233972 162.14766874 -74.92666292 162.14739848 C-90.79976881 162.14306497 -106.67287102 162.13519036 -122.54597473 162.1259722 C-138.87254819 162.11657084 -155.19911975 162.11105576 -171.5256958 162.10903651 C-181.57374446 162.10767465 -191.62178272 162.10339752 -201.66982818 162.09520853 C-208.59048502 162.08986081 -215.51113661 162.08833863 -222.43179536 162.08962362 C-226.4052896 162.09025468 -230.37876586 162.08939355 -234.35225677 162.08391953 C-254.87345761 162.05700597 -275.347937 162.43291736 -295.85546875 163.203125 Z M-367.85546875 168.203125 C-374.37117343 176.55659254 -372.85546875 180.04736918 -372.85546875 192.203125 C-357.67546875 192.203125 -342.49546875 192.203125 -326.85546875 192.203125 C-326.85546875 182.633125 -326.85546875 173.063125 -326.85546875 163.203125 C-331.41030955 163.08771518 -335.95999323 162.98839028 -340.51513672 162.9284668 C-342.06121087 162.90346768 -343.60716857 162.86945598 -345.15283203 162.82592773 C-357.49606684 162.23513655 -357.49606684 162.23513655 -367.85546875 168.203125 Z M-239.85546875 268.203125 C-253.12020765 284.87396113 -259.00691792 302.89084758 -257.85546875 324.203125 C-255.03912371 345.00416158 -244.73723527 362.62743023 -228.22021484 375.47509766 C-212.04981738 387.11404045 -192.37340374 391.24356298 -172.85546875 388.203125 C-153.48011026 384.21500421 -137.61142703 373.66797649 -125.66796875 357.9921875 C-115.00210787 341.57963434 -110.69990089 322.1960227 -114.0078125 302.80859375 C-118.71355228 282.79293563 -129.909982 265.95539787 -147.29296875 254.765625 C-178.04408067 237.09383906 -215.35987724 242.08504682 -239.85546875 268.203125 Z M-383.85546875 293.203125 C-383.85546875 303.433125 -383.85546875 313.663125 -383.85546875 324.203125 C-352.50546875 324.203125 -321.15546875 324.203125 -288.85546875 324.203125 C-288.19546875 315.953125 -287.53546875 307.703125 -286.85546875 299.203125 C-286.52546875 297.223125 -286.19546875 295.243125 -285.85546875 293.203125 C-318.19546875 293.203125 -350.53546875 293.203125 -383.85546875 293.203125 Z M-84.85546875 293.203125 C-84.19546875 299.803125 -83.53546875 306.403125 -82.85546875 313.203125 C-82.85546875 316.503125 -82.85546875 319.803125 -82.85546875 323.203125 C-33.35546875 323.203125 16.14453125 323.203125 67.14453125 323.203125 C67.14453125 313.303125 67.14453125 303.403125 67.14453125 293.203125 C16.98453125 293.203125 -33.17546875 293.203125 -84.85546875 293.203125 Z " fill="#2C694E" transform="translate(413.85546875,45.796875)"/>
<path d="M0 0 C10.34508127 8.94566103 16.33989273 19.86127851 17.5 33.5546875 C17.89320779 45.00686427 14.87254043 54.6539353 8.28125 63.97265625 C7.61996094 64.92785156 7.61996094 64.92785156 6.9453125 65.90234375 C-0.2362146 75.24248015 -11.39264642 80.00139547 -22.71875 81.97265625 C-37.0478172 83.14976762 -49.0339132 78.97236186 -59.90625 69.78515625 C-69.70965868 60.57543226 -73.73210812 49.91023853 -74.15625 36.59765625 C-73.81944299 22.18817365 -68.37350139 10.7318142 -58.0546875 0.828125 C-41.28098925 -12.49546475 -17.07698458 -13.05723983 0 0 Z M-41.09375 28.72265625 C-43.04266549 32.62048722 -43.51289273 35.73995735 -42.71875 39.97265625 C-41.06162148 44.80676489 -38.30571547 48.10621715 -33.70703125 50.37109375 C-29.85783882 51.53568242 -26.50688948 51.24205043 -22.71875 49.97265625 C-19.06638453 47.76876209 -16.4909258 45.19526793 -14.21875 41.59765625 C-13.2117895 36.31111361 -14.01796691 32.34826751 -16.40625 27.66015625 C-19.42315016 24.15402904 -22.05349716 22.40442721 -26.671875 21.65625 C-33.19722389 21.27020837 -36.85045807 23.80937086 -41.09375 28.72265625 Z " fill="#2C694E" transform="translate(256.71875,326.02734375)"/>
<path d="M0 0 C1.11181641 -0.02900391 2.22363281 -0.05800781 3.36914062 -0.08789062 C9.96018843 -0.13862101 15.42481729 0.21060145 20.8125 4.3125 C24.43817671 8.48250072 25.48126535 12.61684635 25.19140625 18.10546875 C24.30546398 23.26585412 22.10116956 26.32558502 17.9765625 29.484375 C12.6044899 32.40448168 6.70202277 31.85302217 0.75 31.75 C-0.40822266 31.75708984 -1.56644531 31.76417969 -2.75976562 31.77148438 C-13.35215311 31.6923913 -13.35215311 31.6923913 -18.1875 28.3125 C-22.85927343 23.13566998 -23.5353341 19.91896502 -23.47265625 13.078125 C-22.9764048 8.2651657 -20.64935415 5.59715971 -17.125 2.5 C-11.89953544 -0.70270409 -5.92300952 0.05062401 0 0 Z " fill="#2C694E" transform="translate(427.1875,236.6875)"/>
</svg>
