<?xml version="1.0" encoding="UTF-8"?>
<svg version="1.1" xmlns="http://www.w3.org/2000/svg" width="512" height="512">
<path d="M0 0 C44.0826863 39.85110855 67.97807884 92.82036466 72.09326172 151.74023438 C72.23835065 154.95873148 72.21337891 158.18301942 72.21337891 161.40478516 C-70.34662109 161.40478516 -212.90662109 161.40478516 -359.78662109 161.40478516 C-358.6252958 134.69430338 -358.6252958 134.69430338 -357.03662109 126.15478516 C-356.8603418 125.16502686 -356.6840625 124.17526855 -356.50244141 123.15551758 C-352.29602036 100.33403169 -344.82880047 78.83009725 -333.78662109 58.40478516 C-333.46725586 57.80617676 -333.14789063 57.20756836 -332.81884766 56.59082031 C-306.74605379 8.0318961 -260.6631414 -28.68250583 -208.21630859 -45.06787109 C-203.77280413 -46.38432033 -199.29524216 -47.52535623 -194.78662109 -48.59521484 C-194.01415039 -48.78067871 -193.24167969 -48.96614258 -192.44580078 -49.15722656 C-124.56399105 -65.06485492 -51.8933364 -46.33384259 0 0 Z " fill="#2C694E" transform="translate(399.78662109375,350.59521484375)"/>
<path d="M0 0 C26.45606707 20.74637967 43.5358815 49.03375173 47.6875 82.5625 C50.06651604 116.65997746 41.54838427 147.82892095 19.50390625 174.171875 C-1.16801194 197.90220532 -29.71913225 213.18556951 -61.3125 215.5625 C-94.68675128 217.36612047 -125.73180901 207.89333845 -150.93505859 185.54321289 C-173.37577473 165.20653269 -188.65770119 137.05930252 -190.49707031 106.49560547 C-191.85638756 73.32924247 -183.60927202 44.20066856 -162.3125 18.5625 C-161.64347656 17.74007812 -160.97445312 16.91765625 -160.28515625 16.0703125 C-121.11206124 -30.23244601 -47.73495874 -35.03819222 0 0 Z " fill="#2C694E" transform="translate(327.3125,22.4375)"/>
</svg>
